<svg width="1326" height="199" viewBox="0 0 1326 199" fill="none" xmlns="http://www.w3.org/2000/svg">
<path d="M102.565 0.280273L196.957 131.656V0.280273H265.957V199H163.837L69.4453 67.6243V199H0.445312V0.280273H102.565Z" fill="white"/>
<path d="M560.107 199H486.69L470.406 164.224H361.11L344.826 199H271.41L366.63 0.280273H464.886L560.107 199ZM415.758 47.7523L384.294 114.544H447.222L415.758 47.7523Z" fill="white"/>
<path d="M565.685 0.280273H769.925V52.7203H634.685V73.4203H764.405V125.86H634.685V146.56H769.925V199H565.685V0.280273Z" fill="white"/>
<path d="M783.886 0.280273H988.126V52.7203H852.886V73.4203H982.606V125.86H852.886V146.56H988.126V199H783.886V0.280273Z" fill="white"/>
<path d="M1071.09 199H1002.09V0.280273H1109.73L1163.82 118.684L1217.92 0.280273H1325.56V199H1256.56V66.5203L1195.84 199H1131.81L1071.09 66.5203V199Z" fill="white"/>
</svg>
