<svg width="516" height="64" viewBox="0 0 516 64" fill="none" xmlns="http://www.w3.org/2000/svg">
<g clip-path="url(#clip0_368_8098)">
<path d="M122.935 62.232H70.3289C70.2228 61.8547 70.1742 2.98806 70.2749 1.81676C70.2851 1.80387 70.2944 1.78999 70.3061 1.77859C70.3172 1.76818 70.3304 1.75529 70.3445 1.75281C70.4083 1.7424 70.472 1.72803 70.5363 1.72803C87.8113 1.72803 105.086 1.72951 122.361 1.73199C122.407 1.73199 122.454 1.75331 122.531 1.77214V15.1101C121.442 15.1715 120.362 15.1299 119.283 15.1373C118.196 15.1448 117.109 15.1388 116.023 15.1388H86.7765C85.6925 15.1388 84.6081 15.1388 83.5358 15.1388C83.4326 15.5403 83.3971 24.4314 83.4906 25.3019H122.027C122.14 25.7073 122.18 37.753 122.081 38.6388H83.5373C83.4317 39.0443 83.4088 48.2234 83.5056 48.84H122.884C122.993 49.2361 123.034 61.2312 122.934 62.2315L122.935 62.232Z" fill="white"/>
<path d="M181.413 23.8729C181.288 23.632 181.19 23.4452 181.094 23.2568C179.78 20.6683 178.047 18.4338 175.726 16.7009C173.428 14.9863 170.846 13.9959 168.031 13.6103C165.115 13.2107 162.227 13.3505 159.42 14.268C153.143 16.3197 149.224 20.6782 147.634 27.1445C146.639 31.1908 146.837 35.246 148.269 39.1693C150.397 44.9986 154.531 48.5893 160.445 50.0333C163.912 50.8799 167.401 50.7956 170.838 49.8201C175.082 48.6156 178.287 45.9989 180.588 42.2049C180.791 41.8693 180.978 41.5233 181.222 41.096C180.966 41.0876 180.782 41.0762 180.598 41.0762C175.764 41.0752 170.93 41.0752 166.096 41.0752H165.446V28.6236C165.803 28.5215 192.836 28.4987 193.372 28.6038V62.2227H181.489V57.5622C181.319 57.7005 181.232 57.7645 181.153 57.8369C178.097 60.6127 174.528 62.3644 170.56 63.3122C167.498 64.0433 164.402 64.1415 161.279 63.8247C156.764 63.3662 152.512 62.0581 148.602 59.7056C142.169 55.8368 137.872 50.2167 135.535 43.0228C134.626 40.2217 134.13 37.3387 133.953 34.3944C133.7 30.2252 134.078 26.1268 135.23 22.1108C138.211 11.7257 146.084 3.91811 156.361 1.14723C159.741 0.235662 163.176 -0.114293 166.669 0.0314391C170.507 0.191546 174.235 0.898394 177.803 2.36067C184.741 5.20343 189.747 10.133 192.956 16.9799C193.198 17.4969 193.416 18.0263 193.664 18.5944C189.571 20.358 185.519 22.1038 181.413 23.8724L181.413 23.8729Z" fill="white"/>
<path d="M0.556151 1.72662H1.12222C10.2051 1.72662 19.2879 1.73256 28.3708 1.72414C33.6547 1.71918 38.6656 2.88602 43.3455 5.38478C50.4425 9.1738 54.9194 15.0804 56.8863 22.9663C57.5711 25.7119 57.8646 28.509 57.905 31.3399C57.9512 34.6045 57.6645 37.8294 56.8459 40.9924C54.806 48.8733 50.1694 54.6515 43.1084 58.439C39.8999 60.1601 36.4826 61.2575 32.9022 61.8439C31.1368 62.1329 29.3622 62.2618 27.5745 62.2608C18.7837 62.2558 9.99236 62.2588 1.20155 62.2588C0.994694 62.2588 0.78832 62.2588 0.555664 62.2588V1.72662H0.556151ZM13.7275 48.8545H14.2756C18.8966 48.8545 23.5181 48.8569 28.1391 48.853C29.7015 48.8515 31.2478 48.6785 32.7572 48.2631C38.1394 46.781 41.8551 43.4143 43.6764 38.0331C45.0563 33.9561 45.0028 29.8266 43.6273 25.752C42.3598 21.9977 39.9987 19.1292 36.5668 17.2099C34.0567 15.8066 31.3398 15.1666 28.4934 15.1483C23.7103 15.1171 18.9268 15.1394 14.1437 15.1414C14.004 15.1414 13.8643 15.1652 13.7275 15.1776V48.8545Z" fill="white"/>
<path d="M340.405 42.546C340.643 42.7721 340.839 42.9654 341.043 43.1508C344.807 46.5819 349.167 48.8279 354.095 49.9446C357.067 50.6183 360.074 50.6753 363.096 50.4765C364.863 50.3605 366.614 50.1394 368.324 49.6537C369.231 49.3959 370.127 49.0901 370.921 48.5671C371.421 48.238 371.91 47.8672 372.323 47.4355C373.863 45.826 373.832 42.7988 371.788 41.2691C370.924 40.6228 369.949 40.2356 368.927 39.9511C367.625 39.5883 366.294 39.3875 364.953 39.2646C362.353 39.0262 359.751 38.8125 357.151 38.5865C355.584 38.4502 354.013 38.3436 352.451 38.1632C348.544 37.7116 344.762 36.7896 341.252 34.9135C338.76 33.5816 336.616 31.8303 334.993 29.4644C333.487 27.268 332.641 24.8208 332.319 22.1719C332.035 19.8401 332.122 17.5293 332.68 15.2466C333.661 11.2321 335.856 8.02943 339.041 5.50391C341.609 3.46714 344.519 2.12978 347.642 1.24944C350.438 0.4613 353.291 0.0855704 356.189 0.0141917C362.317 -0.136993 368.195 0.954012 373.72 3.72391C377.621 5.67889 381.043 8.27827 383.834 11.6965C384 11.8993 384.155 12.1114 384.313 12.3211C384.352 12.3726 384.381 12.4316 384.413 12.4837C384.201 12.7816 375.016 20.1475 374.271 20.6213C374.243 20.609 374.205 20.6045 374.187 20.5832C371.846 17.8554 368.922 16.0229 365.598 14.8139C362.663 13.7462 359.623 13.3477 356.515 13.4166C354.435 13.4626 352.37 13.6351 350.358 14.2161C349.323 14.5145 348.335 14.9224 347.459 15.5743C346.554 16.2484 345.883 17.097 345.648 18.2376C345.286 19.9938 345.737 21.4705 347.165 22.5813C348.111 23.3164 349.209 23.7115 350.346 24.0069C351.671 24.3514 353.026 24.4882 354.383 24.6022C356.209 24.7554 358.035 24.9125 359.861 25.0681C361.541 25.2109 363.224 25.3333 364.902 25.5009C369.034 25.9128 373.078 26.7133 376.893 28.4586C379.3 29.5596 381.466 31.0114 383.234 33.0303C385.07 35.1286 386.209 37.5778 386.697 40.3318C387.282 43.639 387.11 46.9036 385.996 50.0864C384.735 53.69 382.452 56.4951 379.41 58.692C376.841 60.5474 373.987 61.7732 370.961 62.6079C368.213 63.3663 365.409 63.7619 362.567 63.9225C360.181 64.0573 357.8 64.0182 355.423 63.7946C348.961 63.1859 342.909 61.3142 337.446 57.6719C335.045 56.0713 332.872 54.2021 331.033 51.9492C330.847 51.7217 330.675 51.4837 330.455 51.1972C333.768 48.3173 337.065 45.4508 340.405 42.5475V42.546Z" fill="white"/>
<path d="M203.814 51.202C207.149 48.3032 210.448 45.4356 213.763 42.5537C213.876 42.6514 213.963 42.7208 214.044 42.7976C217.877 46.4458 222.38 48.7914 227.492 49.9499C230.464 50.6235 233.471 50.6731 236.493 50.4743C238.13 50.3667 239.753 50.1625 241.344 49.7491C242.321 49.4953 243.279 49.1806 244.147 48.6526C244.617 48.3671 245.074 48.039 245.477 47.6642C247.315 45.9581 247.257 42.6524 244.932 41.1063C244.009 40.4922 242.993 40.1239 241.935 39.8562C240.419 39.473 238.872 39.3045 237.321 39.1672C235.463 39.0031 233.605 38.8495 231.746 38.6923C230.066 38.5501 228.384 38.4286 226.705 38.2631C222.712 37.8685 218.83 37.0224 215.198 35.2131C212.764 34.0007 210.619 32.4065 208.923 30.233C207.101 27.8993 206.076 25.231 205.7 22.2881C205.378 19.7725 205.492 17.2841 206.152 14.8335C207.194 10.9686 209.375 7.88892 212.47 5.4546C215.02 3.44955 217.901 2.12805 220.991 1.25465C223.707 0.486837 226.479 0.107638 229.294 0.021884C235.352 -0.162511 241.176 0.862072 246.677 3.52291C250.499 5.37182 253.87 7.84926 256.686 11.0801C257.081 11.5337 257.442 12.0175 257.851 12.5285C254.427 15.2563 251.05 17.9479 247.668 20.6419C247.61 20.6082 247.561 20.5943 247.533 20.5616C245.305 17.9682 242.535 16.1887 239.393 14.9747C236.336 13.793 233.158 13.3484 229.901 13.4173C227.82 13.4614 225.756 13.6334 223.743 14.2119C222.708 14.5093 221.719 14.9153 220.841 15.5636C219.933 16.2343 219.279 17.0854 219.014 18.2185C218.602 19.9837 219.184 21.5966 220.633 22.6594C221.57 23.3459 222.635 23.7296 223.742 24.0141C225.067 24.3551 226.422 24.4904 227.78 24.6044C229.977 24.7888 232.175 24.9777 234.372 25.1646C235.681 25.2761 236.991 25.3693 238.298 25.5021C242.43 25.921 246.473 26.7235 250.287 28.4703C252.313 29.3982 254.174 30.5839 255.779 32.1607C258.042 34.3838 259.457 37.0764 260.037 40.2181C260.651 43.5416 260.487 46.8196 259.385 50.0222C258.196 53.4781 256.051 56.2153 253.185 58.3899C250.617 60.3374 247.738 61.6272 244.673 62.5105C242.265 63.205 239.806 63.6154 237.312 63.8251C234.947 64.0239 232.583 64.0541 230.215 63.9034C223.828 63.4965 217.783 61.8899 212.232 58.5703C209.46 56.9123 206.955 54.9127 204.821 52.4531C204.48 52.0595 204.166 51.6416 203.813 51.2025L203.814 51.202Z" fill="white"/>
<path d="M459.367 62.235H444.9C443.123 57.649 441.344 53.0559 439.562 48.4574H412.097C410.349 53.042 408.601 57.6301 406.847 62.2296H392.379C400.034 42.0448 407.671 21.907 415.315 1.75342H436.431C444.065 21.8832 451.701 42.0205 459.367 62.2355V62.235ZM417.137 34.9867H434.523C431.648 27.2178 428.788 19.4901 425.929 11.7628L425.818 11.7598C422.932 19.4796 420.047 27.2 417.137 34.9867Z" fill="white"/>
<path d="M313.761 50.2431C316.905 54.2477 319.999 58.1899 323.105 62.147C322.941 62.3145 322.756 62.2555 322.593 62.256C320.906 62.261 319.219 62.259 317.533 62.259C314.614 62.259 311.694 62.2535 308.775 62.2659C308.436 62.2674 308.209 62.1707 307.993 61.8981C307.027 60.6772 306.04 59.4742 305.061 58.2652C304.96 58.1408 304.853 58.0209 304.731 57.8781C304.427 58.1408 304.148 58.3916 303.86 58.6296C300.959 61.0227 297.7 62.6615 293.999 63.2573C288.715 64.1079 283.741 63.2622 279.325 60.0482C275.312 57.1276 272.948 53.1146 272.281 48.1463C271.46 42.029 273.25 36.7515 277.479 32.3275C278.613 31.1408 279.864 30.0949 281.192 29.1422C281.337 29.0381 281.479 28.9305 281.672 28.7883C281.515 28.585 281.368 28.3952 281.221 28.2068C279.88 26.4987 278.686 24.6944 277.877 22.6591C276.46 19.0932 276.111 15.43 277.192 11.7183C278.414 7.52037 281.106 4.53089 284.888 2.5303C288.14 0.809773 291.63 0.228829 295.256 0.486586C298.716 0.732446 301.886 1.84972 304.628 4.05701C307.854 6.65342 309.801 10.0375 310.304 14.1898C310.932 19.3722 309.39 23.8225 305.666 27.4574C303.969 29.1144 302.032 30.4295 299.97 31.5641C299.789 31.6638 299.613 31.7728 299.387 31.9051C301.806 35.0017 304.192 38.0576 306.606 41.1487C309.497 38.758 312.362 36.3871 315.278 33.9746C317.605 36.975 319.919 39.9596 322.26 42.9773C319.424 45.4017 316.611 47.8068 313.761 50.2431ZM288.898 37.9471C288.175 38.4229 287.466 38.8279 286.823 39.3236C285.183 40.5896 284.206 42.2491 284.023 44.3721C283.804 46.9185 285.058 49.2675 287.316 50.4384C289.019 51.3212 290.82 51.4486 292.667 51.0847C294.325 50.7581 295.764 49.9481 297.098 48.9245C297.195 48.8492 297.284 48.7605 297.394 48.6613C294.564 45.0924 291.757 41.5532 288.898 37.9476L288.898 37.9471ZM292.28 22.9129C293.276 22.3176 294.253 21.7649 295.197 21.1602C296.038 20.6214 296.77 19.9423 297.372 19.1298C298.08 18.1727 298.507 17.1089 298.588 15.9014C298.824 12.4291 295.729 9.78169 292.405 10.6209C289.802 11.2782 288.181 13.8795 288.673 16.6003C288.922 17.9749 289.513 19.1913 290.318 20.3076C290.893 21.1051 291.486 21.8898 292.072 22.6789C292.119 22.7429 292.177 22.7984 292.28 22.9129Z" fill="white"/>
<path d="M468.816 1.74512H481.943C482.009 2.86735 481.965 3.98116 481.973 5.09298C481.981 6.21472 481.975 7.33645 481.975 8.45819V45.4284C481.975 46.5482 481.975 47.6679 481.975 48.8363H515.463C515.576 49.2566 515.589 61.7444 515.484 62.2312H468.817V1.74512H468.816Z" fill="white"/>
</g>
<defs>
<clipPath id="clip0_368_8098">
<rect width="515" height="64" fill="white" transform="translate(0.556641)"/>
</clipPath>
</defs>
</svg>
