<svg width="178" height="49" viewBox="0 0 178 49" fill="none" xmlns="http://www.w3.org/2000/svg">
<path d="M65.0119 35.9609H69.07L68.3978 32.8195V14.0912H64.5159V22.6332C63.3482 21.283 61.7422 20.4909 59.8457 20.4909C55.9633 20.4909 52.9575 23.6899 52.9575 28.3873C52.9575 33.0841 55.9633 36.2838 59.8457 36.2838C61.7723 36.2838 63.4354 35.4617 64.6038 34.052L65.0119 35.9609ZM141.748 24.6891C142.536 24.6891 143.266 24.8936 143.936 25.3629L145.776 21.2248C144.928 20.6956 143.936 20.4615 142.975 20.4615C141.223 20.4615 139.763 21.2518 138.83 22.7221L138.421 20.8119H134.422L135.064 23.777V35.9584H138.944V26.302C139.469 25.3036 140.462 24.6878 141.747 24.6878L141.748 24.6891ZM153.13 32.2032C150.885 32.2032 149.22 30.7066 149.22 28.3868C149.22 26.0387 150.885 24.5715 153.13 24.5715C155.408 24.5715 157.042 26.0387 157.042 28.3868C157.042 30.7066 155.408 32.2032 153.13 32.2032ZM56.7222 28.3868C56.7222 26.0387 58.3858 24.5715 60.6328 24.5715C62.9105 24.5715 64.5448 26.0387 64.5448 28.3868C64.5448 30.7066 62.9105 32.2032 60.6341 32.2032C58.3871 32.2032 56.7222 30.7066 56.7222 28.3868ZM170.324 32.2032C168.077 32.2032 166.413 30.7066 166.413 28.3868C166.413 26.0387 168.077 24.5715 170.324 24.5715C172.6 24.5715 174.234 26.0387 174.234 28.3868C174.234 30.7066 172.6 32.2032 170.324 32.2032ZM78.4969 24.3363C80.5107 24.3363 81.8244 25.2754 82.2326 27.0072H74.7611C75.1988 25.2754 76.5127 24.3363 78.4969 24.3363ZM124.934 24.3363C126.949 24.3363 128.263 25.2754 128.671 27.0072H121.2C121.638 25.2754 122.95 24.3363 124.934 24.3363ZM105.993 35.9609H112.239L116.297 20.8138H112.065L109.088 33.0841L106.111 20.8138H101.936L105.993 35.9609ZM95.981 35.9609H99.8609V20.8132H95.981V35.9609ZM79.0918 36.2415C81.2528 36.2415 83.3832 35.6533 85.1636 34.509L83.6754 31.163C82.2738 31.8969 80.7273 32.3374 79.1507 32.3374C77.1082 32.3374 75.6778 31.5446 75.0644 30.0769H85.98C86.0968 29.5194 86.1563 28.9619 86.1563 28.2863C86.1563 23.5895 82.9166 20.4486 78.567 20.4486C74.1896 20.4486 70.9787 23.6189 70.9787 28.3451C70.9787 33.1588 74.159 36.2415 79.0918 36.2415ZM178 28.3868C178 23.6899 174.732 20.4904 170.324 20.4904C165.916 20.4904 162.647 23.6899 162.647 28.3868C162.647 33.0841 165.916 36.2831 170.322 36.2831C174.732 36.2831 178 33.0841 178 28.3868ZM125.461 36.2831C127.62 36.2831 129.751 35.6962 131.533 34.5513L130.043 31.2034C128.642 31.9373 127.095 32.3772 125.518 32.3772C123.476 32.3772 122.045 31.5858 121.432 30.1168H132.349C132.466 29.5593 132.523 29.0018 132.523 28.3267C132.523 23.6299 129.283 20.4891 124.934 20.4891C120.557 20.4891 117.346 23.6587 117.346 28.3855C117.346 33.1993 120.528 36.2831 125.461 36.2831ZM153.13 36.2831C157.538 36.2831 160.807 33.0841 160.807 28.3868C160.807 23.6899 157.538 20.4904 153.13 20.4904C148.723 20.4904 145.454 23.6899 145.454 28.3868C145.454 33.0841 148.724 36.2831 153.13 36.2831ZM88.6255 35.9602H92.5067V14.0905H88.6249L88.6255 35.9602ZM97.9357 18.7279C99.3072 18.7279 100.358 17.6706 100.358 16.2617C100.358 14.8527 99.3084 13.7959 97.9363 13.7959C96.5354 13.7959 95.4843 14.8527 95.4843 16.2617C95.4843 17.6706 96.5347 18.7279 97.9357 18.7279ZM31.2459 0.305299L29.0235 21.2941L25.2324 3.59862L13.3468 6.1066L17.1359 23.8008L0 27.4152L3.02667 41.5496L33.1607 47.9047L40.0521 32.5456L43.3316 1.56663L31.2446 0.304688L31.2459 0.305299ZM21.7239 30.7532C21.1025 31.318 20.2811 31.2659 19.4093 30.978C18.5395 30.6913 18.1526 29.6468 18.4823 28.3843C18.7278 27.447 19.8839 27.3061 20.4623 27.2963C20.6821 27.2927 20.8982 27.3368 21.0976 27.4262C21.5065 27.6099 22.199 28.0021 22.3397 28.5999C22.5422 29.4624 22.347 30.1865 21.7257 30.7514L21.7239 30.7532ZM30.4478 31.7272C29.9965 32.5052 28.8116 32.6082 27.6458 32.042C26.8599 31.6598 26.8661 30.687 26.9521 30.0941C26.9977 29.7705 27.1292 29.4652 27.3327 29.2094C27.6133 28.8566 28.0817 28.3966 28.6232 28.3824C29.5036 28.3592 30.2611 28.7512 30.689 29.4606C31.1187 30.1676 30.9039 30.9474 30.4515 31.7272H30.4478Z" fill="white"/>
</svg>
