<svg width="163" height="56" viewBox="0 0 163 56" fill="none" xmlns="http://www.w3.org/2000/svg">
<path d="M86.5165 18.0003C86.3011 18.2619 86.1793 18.5541 86.1793 19.062V33.0284H86.102C86.102 33.0284 78.4733 19.3998 78.1046 18.7698C77.8435 18.3229 77.5519 18.0155 77.1679 17.7844C76.784 17.5697 76.3847 17.4313 75.6178 17.4313H73.1006C72.5165 17.4313 72.1489 17.6307 71.8877 17.9392C71.6723 18.1997 71.5495 18.4929 71.5495 18.9999V38.7968C71.5495 39.3047 71.6723 39.5968 71.8877 39.8585C72.1489 40.1659 72.5165 40.3653 73.1006 40.3653H74.5279C75.111 40.3653 75.4796 40.1659 75.7408 39.8585C75.955 39.5968 76.0779 39.3047 76.0779 38.7968V24.4913H76.1552C76.1552 24.4913 84.0755 38.5504 84.3985 39.0737C84.8435 39.8115 85.5951 40.3653 86.6698 40.3653H89.1108C89.6939 40.3653 90.0627 40.1659 90.3238 39.8585C90.538 39.5968 90.661 39.3047 90.661 38.7968V20.9378H122.728C123.051 20.9378 123.296 20.8463 123.481 20.6926C123.68 20.5072 123.773 20.261 123.773 19.8925V18.5387C123.773 18.1692 123.68 17.9228 123.481 17.7386C123.296 17.585 123.051 17.4922 122.728 17.4922H87.7293C87.1463 17.4922 86.7776 17.6929 86.5165 18.0003ZM100.516 23.2912C95.1895 23.2912 92.1958 27.4606 92.1958 31.8598C92.1958 36.5514 95.4048 40.6738 100.547 40.6738C103.111 40.6738 105.628 39.7048 107.07 37.9966C107.7 37.2588 108.207 36.2277 108.207 35.5977C108.207 35.3818 108.16 35.1976 108.039 35.0591C107.916 34.9054 107.731 34.8127 107.409 34.8127H104.937C104.446 34.8127 104.108 34.9969 103.862 35.3665C103.141 36.4282 102.097 36.9818 100.562 36.9818C98.2593 36.9818 96.7712 35.2281 96.6634 33.3052H107.348C107.823 33.3052 108.16 33.1973 108.391 32.9674C108.652 32.721 108.775 32.3668 108.775 31.7052C108.775 29.6908 108.145 27.599 106.826 25.9988C105.475 24.3834 103.418 23.2912 100.516 23.2912ZM116.987 23.2912C112.781 23.2912 110.018 25.2913 110.018 28.4906C110.018 29.6285 110.433 30.5519 111.108 31.2746C111.892 32.1215 113.012 32.7057 114.639 33.1211L118.154 34.0127C119.121 34.259 119.981 34.5511 119.981 35.397C119.981 36.7051 118.599 37.1509 117.126 37.1509C116.404 37.1509 115.652 37.0124 115.037 36.7051C114.608 36.4892 114.24 36.1818 113.979 35.7664C113.748 35.4122 113.672 35.1506 113.319 34.9512C113.103 34.828 112.842 34.8127 112.49 34.8127H110.586C110.172 34.8127 109.973 34.9359 109.834 35.1049C109.696 35.2738 109.65 35.5202 109.65 35.7664C109.65 36.3814 109.865 37.1509 110.372 37.8431C111.538 39.4116 113.979 40.6738 117.094 40.6738C120.165 40.6738 124.418 39.3963 124.418 35.2738C124.418 34.2132 124.11 33.3052 123.542 32.5673C122.821 31.6288 121.793 30.9825 120.042 30.5367L116.558 29.6438C115.115 29.2754 114.439 29.0138 114.439 28.121C114.439 27.26 115.207 26.5678 116.987 26.5678C118.031 26.5678 118.983 26.799 119.598 27.4453C120.103 27.9838 120.012 28.2606 120.411 28.4754C120.656 28.5986 120.932 28.5986 121.363 28.5986H123.097C123.373 28.5986 123.573 28.5527 123.726 28.3827C123.85 28.2442 123.926 28.0296 123.926 27.6752C123.926 26.8752 123.404 25.8451 122.483 25.0603C121.255 23.9987 119.321 23.2912 116.987 23.2912ZM126.551 23.8766H125.691C125.369 23.8766 125.124 23.9682 124.94 24.1219C124.739 24.3071 124.647 24.5535 124.647 24.9219V25.9836C124.647 26.3532 124.739 26.5983 124.94 26.7837C125.124 26.9374 125.369 27.03 125.691 27.03H126.551V34.7048C126.551 36.6733 127.088 37.9041 128.086 38.8894C129.007 39.7963 130.205 40.3653 132.292 40.3653H133.596C133.919 40.3653 134.164 40.2738 134.349 40.1201C134.548 39.9347 134.671 39.6885 134.671 39.32V37.9816C134.671 37.612 134.548 37.3666 134.349 37.1814C134.164 37.0277 133.919 36.935 133.596 36.935H133.412C132.584 36.935 132.016 36.7203 131.632 36.3507C131.172 35.9203 130.941 35.2586 130.941 34.3974V27.03H133.736C134.058 27.03 134.304 26.9374 134.487 26.7837C134.686 26.5983 134.779 26.3532 134.779 25.9836V24.9219C134.779 24.5535 134.686 24.3071 134.487 24.1219C134.304 23.9682 134.058 23.8766 133.736 23.8766H130.956V18.8613C130.956 18.4614 130.833 18.1692 130.65 17.9392C130.419 17.6623 130.097 17.4922 129.622 17.4922H127.886C127.41 17.4922 127.088 17.6623 126.857 17.9392C126.674 18.1692 126.551 18.4614 126.551 18.8613V23.8766ZM135.946 38.9962C135.946 39.3963 136.068 39.6885 136.253 39.9195C136.482 40.1964 136.805 40.3653 137.281 40.3653H139.107C139.584 40.3653 139.906 40.1964 140.136 39.9195C140.32 39.6885 140.443 39.3963 140.443 38.9962V18.8624C140.443 18.4624 140.32 18.1703 140.136 17.9392C139.906 17.6623 139.584 17.4922 139.107 17.4922H137.281C136.805 17.4922 136.482 17.6623 136.253 17.9392C136.068 18.1703 135.946 18.4624 135.946 18.8624V38.9962ZM96.6939 30.0286C96.893 28.1364 98.3364 26.7215 100.532 26.7215C102.681 26.7215 104.169 28.1364 104.369 30.0286H96.6939ZM157.069 20.9378C157.39 20.9378 157.635 20.8463 157.82 20.6926C158.02 20.5072 158.112 20.261 158.112 19.8925V18.4614C158.112 17.9076 158.005 17.6307 157.82 17.4313C157.651 17.246 157.374 17.1391 157.069 17.1391C156.822 17.1391 156.576 17.1696 156.162 17.2154L143.912 18.4307C143.56 18.4614 143.391 18.5693 143.268 18.7078C143.13 18.8614 143.068 19.062 143.068 19.3388V20.1378C143.068 20.4462 143.13 20.5847 143.238 20.7079C143.375 20.8616 143.575 20.9378 143.851 20.9378H157.069ZM150.299 23.2912C144.972 23.2912 141.978 27.4606 141.978 31.8598C141.978 36.5514 145.187 40.6738 150.329 40.6738C152.893 40.6738 155.411 39.7048 156.853 37.9966C157.483 37.2588 157.989 36.2277 157.989 35.5977C157.989 35.3818 157.943 35.1976 157.82 35.0591C157.697 34.9054 157.513 34.8127 157.191 34.8127H154.719C154.228 34.8127 153.89 34.9969 153.645 35.3665C152.923 36.4282 151.879 36.9818 150.344 36.9818C148.041 36.9818 146.552 35.2281 146.445 33.3052H157.16C157.635 33.3052 157.974 33.1973 158.203 32.9674C158.464 32.721 158.587 32.3668 158.587 31.7052C158.587 29.6908 157.958 27.599 156.639 25.9988C155.286 24.3834 153.2 23.2912 150.299 23.2912ZM146.476 30.0286C146.676 28.1364 148.118 26.7215 150.314 26.7215C152.463 26.7215 153.951 28.1364 154.152 30.0286H146.476ZM54.2366 21.1223C50.2628 15.1828 46.771 13.1814 45.7887 12.2397C44.7096 11.2009 43.8873 10.0237 43.364 9.45685C42.2 8.18262 40.6934 6.60972 38.2155 6.60972C35.8235 6.60972 34.2428 8.17174 33.7294 9.52119C33.5804 9.90597 33.4629 10.3768 33.3563 10.5479C33.1212 10.9338 32.0639 12.7422 31.6255 13.4594H33.6021L32.6405 15.2787C33.762 15.0323 34.5626 14.8503 35.6308 14.8503C36.5816 14.8503 37.2647 15.0759 37.5638 15.6743C38.1197 16.7884 38.1197 20.1586 39.0595 22.6962C39.9352 25.0812 42.0716 27.415 44.4747 29.2026C44.5061 29.2239 44.5433 29.235 44.5812 29.2342C44.6987 29.2342 44.7739 29.1493 44.7739 29.0631C44.7739 28.9988 44.752 28.9564 44.6987 28.9029C42.6907 26.8908 41.0568 24.6649 40.1811 22.2253C39.3152 19.8491 39.4545 16.5093 38.6963 15.0214C38.1936 14.0371 37.1265 13.781 36.1432 13.781C35.3534 13.781 34.616 13.9412 34.2743 14.0153L35.1392 12.5492H33.676C33.9861 12.0042 34.3058 11.5006 34.4668 11.2009C34.605 10.9436 34.6595 10.6232 34.8302 10.185C35.3851 8.78216 36.6132 7.89374 38.2155 7.89374C40.2235 7.89374 41.3984 9.18872 42.5623 10.4837C43.0964 11.0832 43.9721 12.3356 44.987 13.2665C45.6811 13.9085 47.006 14.6257 49.0455 16.735C50.2204 17.9547 51.5877 19.5384 53.0291 21.6576C58.1886 29.2233 61.5737 35.891 63.4644 41.0927L63.4329 41.1144C58.0177 37.4323 53.3283 33.9541 49.5482 29.6626C46.8668 26.6128 44.5388 23.081 42.5089 18.5749C42.3697 18.2752 42.2534 17.9972 42.125 17.7083C42.0716 17.5906 42.0184 17.5579 41.9325 17.5579C41.8259 17.5579 41.7508 17.6332 41.7508 17.7399C41.7508 17.8576 41.8042 18.1149 41.9217 18.6283C43.0007 23.2948 45.9911 27.4792 49.1848 30.9576C52.3678 34.4151 55.9662 37.3898 58.9249 39.5524L61.2322 46.1656C61.2855 46.327 61.3497 46.4981 61.3497 46.6583C61.3497 46.776 61.3171 46.8719 61.2431 46.9363C61.179 47.0005 61.094 47.0333 60.9015 47.0333H60.2075C59.9083 47.0333 59.7897 46.9896 59.6832 46.9045C59.5766 46.8185 59.5025 46.6899 59.4482 46.5405C59.2459 45.9192 58.0275 42.441 57.7937 41.7346C57.7502 41.6071 57.6751 41.5635 57.5903 41.5635C57.5664 41.5634 57.5427 41.568 57.5206 41.5771C57.4984 41.5862 57.4784 41.5995 57.4615 41.6164C57.4445 41.6334 57.4312 41.6536 57.422 41.6757C57.413 41.6978 57.4085 41.7216 57.4085 41.7455C57.4085 41.8317 57.4402 41.9275 57.4945 42.2273C57.8035 43.8112 58.1667 45.5879 58.3157 46.2626C58.3811 46.5721 58.455 46.8621 58.455 47.0758C58.455 47.2676 58.4126 47.3756 58.2527 47.5358L57.5369 48.2639C57.3662 48.435 57.2693 48.4775 57.1313 48.4775C56.9604 48.4775 56.8213 48.3598 56.757 48.06C55.9456 44.2602 54.7173 39.5524 54.3964 38.2455C54.3215 37.9578 54.2681 37.7964 54.0973 37.7964C53.9483 37.7964 53.895 37.9032 53.895 38.0318C53.895 38.1278 53.9157 38.2454 53.9265 38.3316C54.119 39.6799 54.8991 44.5927 55.7421 49.077C55.8922 49.8476 56.1804 50.275 56.843 50.275C57.1421 50.275 57.4292 50.1572 57.6968 49.9012C58.1352 49.4619 58.2625 49.3441 58.7869 48.8306C59.1599 48.4666 59.4167 48.3173 60.0574 48.3173H61.638C62.0121 48.3173 62.2145 48.2215 62.3962 48.0491C62.5669 47.8889 62.6736 47.6644 62.6736 47.3429C62.6736 47.0114 62.5887 46.7445 62.4712 46.4119C62.0655 45.3208 60.7623 41.6278 60.3772 40.5901L60.4099 40.5683C61.7446 41.5853 63.6884 42.8803 64.5434 42.8803C64.81 42.8803 64.971 42.7626 64.971 42.345C64.971 40.3765 61.7021 32.2744 54.2366 21.1223ZM17.5702 8.6859C17.7943 8.19321 18.2861 7.8509 18.8735 7.8509C19.674 7.8509 20.3147 8.47226 20.3147 9.29632C20.3147 9.77702 20.0907 10.1956 19.7381 10.4517C19.8133 10.7308 19.8665 10.976 19.8665 11.2114C19.8665 12.1107 19.3325 12.7419 18.3502 13.0743C18.2218 13.6193 17.9869 14.112 17.6018 14.4761C16.9611 15.0963 16.3094 15.0963 16.3094 15.3536C16.3094 15.4931 16.4063 15.5781 16.6728 15.5781C17.8585 15.5781 19.0225 14.9154 19.1617 13.8123C20.2941 13.4275 20.9773 12.2818 20.9773 11.3728C20.9773 11.1362 20.9555 10.9335 20.8597 10.7417C21.1698 10.4408 21.533 9.92739 21.533 9.16764C21.533 8.50382 21.2438 7.83024 20.7314 7.33755C20.2832 6.89827 19.6523 6.60938 18.9159 6.60938C17.8477 6.60938 17.1536 7.18821 16.7587 7.75503C15.5938 7.75503 14.0882 9.04993 14.0882 10.9019H13.9283C13.8206 10.2599 13.1592 9.83043 12.6034 9.79881C12.1552 8.45045 11.1403 7.29503 9.47374 7.29503C9.28229 7.29503 9.04735 7.30594 8.84393 7.33755C8.35333 6.88737 7.80832 6.60938 7.05013 6.60938C5.59683 6.60938 4.41113 7.77677 4.41113 9.25267C4.41113 10.1737 4.82775 10.8049 5.61857 11.3619C5.61857 11.3619 5.60772 11.4796 5.60772 11.5331C5.60772 12.7103 6.88914 14.5513 8.79062 14.5513C8.79062 14.85 9.1648 15.2576 9.58143 15.3318V15.4822H9.42046C6.8043 15.4822 5.69363 16.7454 5.69363 17.5902C4.91368 17.9118 4.41113 18.7784 4.41113 19.5807C4.41113 21.1753 5.57615 22.3101 7.11429 22.3101C7.62666 22.3101 8.14989 22.1073 8.51322 21.8282C8.77973 21.9242 9.12129 21.9777 9.47374 21.9777C10.2113 21.9777 11.0337 21.7215 11.6102 20.8756C11.6961 20.8865 11.7701 20.8865 11.856 20.8865C12.7959 20.8865 13.6074 20.2652 14.0349 19.4521C14.1415 19.2492 14.1839 19.089 14.1839 18.9703C14.1839 18.8537 14.1306 18.7566 14.0131 18.7566C13.8641 18.7566 13.8423 18.8961 13.5758 19.1424C12.9775 19.6885 12.0583 19.8914 11.1185 19.8914C10.6594 20.566 10.0938 20.9191 9.4422 20.9191C8.96139 20.9191 8.58828 20.7906 8.2032 20.5334C7.89317 20.8756 7.50919 21.0151 7.13497 21.0151C6.29194 21.0151 5.69363 20.4265 5.69363 19.5698C5.69363 18.9703 6.07764 18.4362 6.61176 18.2324C6.70749 17.1729 7.83988 16.4556 9.24966 16.4556C9.43132 16.4556 9.61297 16.4665 9.80552 16.4883C10.0187 16.1459 10.5311 15.7819 11.2578 15.6848C11.4079 15.6642 11.5243 15.6533 11.6102 15.6108C11.6961 15.5672 11.7385 15.4822 11.7385 15.3852C11.7385 15.3002 11.7059 15.2249 11.6211 15.1715C11.546 15.129 11.4176 15.1083 11.2686 15.0756C10.5953 14.947 9.79463 14.5295 9.38889 13.5125C7.77569 13.5125 6.58998 12.2175 6.58998 10.7624V10.6664C6.05588 10.4517 5.69363 9.93833 5.69363 9.32791C5.69363 8.52566 6.32346 7.88362 7.12409 7.88362C7.60489 7.88362 8.02154 8.11904 8.28914 8.47221C8.51322 8.40789 8.76885 8.38611 9.01469 8.38611C10.2113 8.38611 11.4927 9.14586 11.7385 10.6228C13.2767 10.7624 13.64 12.0683 13.7357 12.6143C13.789 12.8923 13.8315 13.1277 14.0131 13.1277C14.2057 13.1277 14.2481 12.913 14.3123 12.6241C14.4297 12.0791 14.6332 11.6399 15.0389 11.2976C15.0389 9.89474 16.0854 8.6859 17.5702 8.6859ZM20.6781 17.0764C20.1755 17.7937 19.8133 18.1468 18.67 19.4952C17.1645 21.2828 16.3737 22.7282 15.0596 25.9383C15.2739 25.9165 15.584 25.8958 15.9255 25.8958C16.0963 25.8958 16.2344 25.8958 16.4595 25.9056L16.6196 25.5634C17.3569 23.9795 18.3491 21.8388 19.7381 20.1907L20.2191 19.6238C21.6494 17.9441 22.536 16.9478 23.0919 14.6577C23.2844 13.8445 23.4443 13.1175 23.9893 12.5921C24.4799 12.1212 25.0999 11.9185 25.7299 11.9185C26.2639 11.9185 26.6599 12.0471 27.2365 12.2923C27.7596 12.5169 27.9512 12.5605 28.5069 12.5605C28.6996 12.5605 28.8376 12.5495 28.966 12.5386L28.2186 13.5448L29.2336 14.262C27.962 14.6359 27.2897 15.8676 27.0646 16.4345C27.0221 16.5522 27.0014 16.6274 27.0014 16.7025C27.0014 16.7887 27.044 16.8738 27.1722 16.8738C27.3104 16.8738 27.417 16.7669 27.5986 16.5521C28.2186 15.8032 28.7104 15.2888 30.9948 14.5727L29.3826 13.3518L30.5998 11.5653H29.4578C28.7311 11.5653 28.2503 11.5544 27.6204 11.2655C26.7655 10.8699 26.3282 10.6987 25.5698 10.6987C24.6409 10.6987 23.7968 11.0301 23.1028 11.6721C22.3011 12.41 22.0552 13.3954 21.768 14.4767C21.5429 15.3106 21.2764 16.2316 20.6781 17.0764Z" fill="white"/>
<path d="M23.134 24.3617C22.5249 25.1858 21.6917 26.266 21.051 27.4117C21.2544 27.5086 21.9277 27.8728 22.1627 28.0003C22.8991 26.8873 23.925 25.5183 24.5971 24.4795C25.2063 23.5377 25.4522 23.1311 25.4946 21.8678C25.5054 21.6541 25.5054 21.4503 25.5262 21.2476C25.5795 20.5946 25.7513 19.9309 26.3703 19.3216C26.8293 18.8603 27.4919 18.6261 28.1543 18.6261C28.7951 18.6261 29.1681 18.807 29.724 18.807C30.1188 18.807 30.4071 18.7112 30.6638 18.6152L30.8672 18.5399L30.3756 19.7182L31.5287 20.1882C30.7922 20.6481 29.179 22.6287 29.179 24.9721C29.179 25.818 29.3074 26.5984 29.489 27.2939C29.5107 27.3692 29.5533 27.4444 29.6706 27.4444C29.7773 27.4444 29.8524 27.3801 29.8633 27.2624L29.8741 27.016C29.9057 26.2987 29.9589 25.1652 30.2472 24.1481C30.728 22.4358 32.0203 20.8301 33.3127 20.0594L31.4753 19.2572L32.2662 17.3202L31.4014 17.5023C30.8781 17.609 30.4931 17.705 30.034 17.705C29.7349 17.705 29.3932 17.6626 28.9876 17.5655C28.6776 17.4914 28.3457 17.427 27.8769 17.427C27.0328 17.427 26.1245 17.7475 25.5056 18.347C24.3731 19.4283 24.3089 20.5946 24.2339 21.6334C24.1381 23.0134 23.8813 23.3557 23.134 24.3617ZM50.5405 25.0144C50.4654 24.9186 50.4013 24.875 50.3165 24.875C50.1881 24.875 50.1239 24.9611 50.1239 25.057C50.1239 25.2075 50.2305 25.3895 50.4981 25.8396C51.3096 27.2196 52.3137 28.6104 53.5526 29.9174C54.8873 31.3399 56.4571 32.6665 58.1345 33.8546L58.6576 34.2186C58.7328 34.2731 58.786 34.3048 58.8503 34.3048C58.9568 34.3048 59.0319 34.198 59.0319 34.1118C59.0319 34.0584 59.0102 34.004 58.9459 33.9505C57.3872 32.5281 55.7098 30.7938 54.14 29.125C52.9109 27.8082 51.6511 26.4174 50.5405 25.0144ZM16.1705 20.1665C16.3304 19.8996 16.8112 19.2466 17.0037 19.0428C16.1814 17.374 14.8357 15.7792 14.2483 15.1471L13.7566 15.6288C14.3233 16.4528 15.273 18.0476 16.1705 20.1665ZM8.34168 10.5026C8.24485 10.4165 8.22419 10.363 8.22419 10.2987C8.22419 10.2246 8.27747 10.1385 8.39495 10.1385C8.43738 10.1385 8.47982 10.1494 8.53422 10.1712C9.32396 10.4916 9.99729 10.8666 10.5956 11.3266C11.0971 11.7114 11.5887 12.1834 12.0685 12.7502L11.6203 13.2636C11.0655 12.8025 9.27065 11.295 8.34168 10.5026ZM15.9142 14.0878L15.3376 13.7346C15.7107 12.8462 16.1708 12.0331 16.7148 11.4227C17.0999 10.9845 17.4632 10.6302 17.869 10.2782C17.9647 10.203 18.018 10.1386 18.1136 10.1386C18.2214 10.1386 18.2965 10.2247 18.2965 10.3098C18.2965 10.3523 18.2746 10.4057 18.2322 10.47C17.5807 11.487 16.309 13.4992 15.9142 14.0878ZM8.67288 19.0535C8.53364 19.1069 8.4695 19.1396 8.39553 19.1396C8.27804 19.1396 8.22363 19.0425 8.22363 18.9674C8.22363 18.8932 8.25626 18.8507 8.33132 18.7854C9.64429 17.7585 10.7985 17.3519 12.3899 17.0839L12.5814 17.727L8.67288 19.0535ZM36.0683 10.7489C36.0683 10.374 36.2608 9.69922 36.9549 9.69922C37.1897 9.69922 37.4139 9.75262 37.5955 9.83874C37.8523 9.95646 38.0231 10.1276 38.0231 10.3096C38.0231 10.5026 37.8304 10.6955 37.5423 10.931C37.2431 11.1762 36.8591 11.4019 36.5491 11.4019C36.1759 11.4019 36.0683 11.0476 36.0683 10.7489ZM25.2276 13.8738C25.2276 13.4138 25.505 12.9102 26.039 12.9102C26.274 12.9102 26.5514 13.0061 26.7548 13.2002C26.8723 13.307 26.9256 13.4236 26.9256 13.5424C26.9256 13.7997 26.6798 14.0449 26.3915 14.2161C26.1674 14.3447 25.9325 14.4308 25.7301 14.4308C25.3983 14.4308 25.2276 14.2258 25.2276 13.8738Z" fill="white"/>
<path d="M27.7376 20.4805C27.7376 20.3736 27.7485 20.245 27.7909 20.1163C27.8769 19.8383 28.0574 19.5703 28.5067 19.5703C28.71 19.5703 28.9331 19.6237 29.1147 19.7534C29.2757 19.8603 29.3398 19.9987 29.3398 20.1382C29.3398 20.5982 28.5708 21.1333 28.1858 21.1333C27.9084 21.1333 27.7376 20.8653 27.7376 20.4805ZM23.5294 33.9864C22.088 33.9864 21.4463 33.302 21.4463 32.4354C21.4463 30.9148 24.106 29.428 26.498 28.507L27.1181 29.3103C25.6441 29.8978 22.6755 31.1623 22.6755 32.2534C22.6755 32.6382 22.8996 32.9173 23.796 32.9173C25.3558 32.9173 27.0332 32.1563 28.5812 31.3966C28.6987 31.3432 28.838 31.2897 28.9662 31.2897C29.1686 31.2897 29.297 31.3541 29.446 31.5677L29.7026 31.921C27.898 32.9173 25.6441 33.9864 23.5294 33.9864Z" fill="white"/>
<path d="M27.5029 34.3903C26.0932 35.1816 24.6301 35.707 23.3377 35.707C21.8954 35.707 20.6139 35.0856 19.5457 33.4691C19.0976 32.7846 18.7452 31.9289 18.3177 31.1692C17.8052 30.2699 17.2495 29.7882 16.278 29.7882C15.3914 29.7882 14.5255 30.1522 13.6074 30.5479L13.6498 30.7517C13.7249 31.0832 13.8533 31.3185 14.1622 31.3185C14.3015 31.3185 14.4407 31.2554 14.5157 31.2336C15.0281 31.0723 15.4012 30.9327 15.9256 30.9327C16.7262 30.9327 17.1102 31.4047 17.6551 32.56L17.8585 32.9884C17.3027 33.1815 15.9995 33.2773 15.0281 33.2773H14.569L14.6441 33.7372C14.6756 33.9303 14.7507 34.0905 14.9106 34.1657C15.1021 34.2616 15.3805 34.2725 15.8613 34.2725C17.0785 34.2725 17.9651 34.1232 18.4776 33.9935C19.7915 35.9533 21.5963 36.7021 23.3377 36.7021C24.8215 36.7021 26.3281 36.156 27.7706 35.3647L27.5029 34.3903ZM28.9552 34.8717L28.6995 33.8864C30.8991 32.6994 32.9072 31.7468 36.1118 31.4361C36.1759 32.6667 36.0901 34.2189 36.9984 34.2189C37.8305 34.2189 39.6461 32.0672 41.7401 29.3705C41.9326 29.5525 42.2416 29.7454 42.52 29.9591L41.9859 30.6545C39.9453 33.288 38.2047 35.5356 36.7731 35.5356C35.4384 35.5356 34.9359 33.9616 34.9152 32.7845C32.8756 32.9883 30.9523 33.6727 28.9552 34.8717ZM57.2163 13.392C56.3831 13.392 56.1481 12.9309 56.1481 12.2791C56.1481 10.9307 56.9923 8.99373 57.5263 7.89062H56.2329C55.5607 9.19648 52.9118 13.3811 51.4804 15.1153L52.3027 16.0027C53.0717 15.1469 53.9159 13.6918 54.834 12.2573H55.0048C55.0048 12.3325 54.995 12.4176 54.995 12.4928C54.995 13.7027 55.6139 14.6008 57.1413 14.6008C58.0811 14.6008 59.5551 14.1299 60.9442 13.659C62.0973 13.2633 63.1546 12.8568 63.6779 12.7074V11.4234C63.0796 11.6044 61.8623 12.0752 60.6016 12.5145C59.2777 12.9745 57.9745 13.392 57.2163 13.392ZM60.0679 17.2767C61.3492 16.7318 63.6455 15.8107 64.9704 15.3289V14.023C62.3107 15.0084 57.643 16.9453 54.4602 18.6796C54.546 18.7854 55.1019 19.5669 55.165 19.6638C56.5107 19.1069 57.7182 18.7428 58.807 18.7428C60.3353 18.7428 61.5842 18.7428 63.6782 18.2501V17.2658C62.5034 17.4806 61.2534 17.7367 60.442 17.7367C59.9612 17.7367 59.822 17.6724 59.822 17.5122C59.822 17.4162 59.8861 17.352 60.0679 17.2767Z" fill="white"/>
<path d="M32.7049 23.293L32.1914 24.2783H37.65L37.2443 23.293H32.7049Z" fill="white"/>
</svg>
