<svg width="447" height="82" viewBox="0 0 447 82" fill="none" xmlns="http://www.w3.org/2000/svg">
<g clip-path="url(#clip0_368_8129)">
<path d="M406.693 12.9297H406.255C400.012 12.9297 379.529 14.9189 379.42 40.7787C379.42 67.7437 401.874 69.0698 406.365 69.0698H406.584C409.432 69.0698 419.18 68.5173 426.19 61.555C431.119 56.6925 433.529 49.6197 433.529 40.7787C433.419 14.9189 412.937 12.9297 406.693 12.9297ZM414.689 58.1291C413.156 59.4553 410.637 61.0025 406.803 61.0025H406.036C402.203 61.0025 399.683 59.4553 398.15 58.1291C394.316 54.7033 392.345 48.5146 392.345 39.7841C392.454 22.6547 400.888 20.113 405.927 20.113H406.693C411.732 20.113 420.166 22.6547 420.275 39.7841C420.494 48.5146 418.523 54.7033 414.689 58.1291ZM83.0264 77.4688C78.0974 75.5901 70.8683 70.175 66.5966 65.0914C61.339 59.0132 48.6333 41.9944 48.5238 41.8839L42.7186 34.148C37.1325 26.4122 30.7796 17.7922 24.4268 12.5981V68.9593H32.094V39.7841L32.2035 40.0052C34.2846 42.6574 36.4753 45.5308 38.6659 48.4041C42.2805 53.0456 45.895 57.9081 48.9619 61.4445C51.043 63.8758 56.5196 69.7329 58.0531 71.0591C65.0631 77.8003 76.4544 82.1103 87.7362 82.1103C92.6652 82.1103 97.3751 81.3367 101.756 79.9V79.5685C100.004 79.9 98.0322 80.1211 96.0607 80.1211C91.7889 79.9 87.2981 79.1264 83.0264 77.4688Z" fill="white"/>
<path d="M34.7216 17.0189C39.9792 22.9865 53.123 40.0054 53.3421 40.2264L59.1473 47.9623C64.7334 55.6981 71.0863 64.3181 77.3296 69.5121V12.9299H69.7719V42.2156L69.5528 41.9946C67.4717 39.3423 65.2811 36.469 63.0904 33.5957C59.4759 28.9542 55.8613 24.0916 52.7944 20.5553C50.7133 18.124 44.7986 12.2668 43.2651 10.9407C36.2551 4.19946 24.8638 0 13.582 0C8.65303 0 4.38128 0.773585 0 2.32075V2.65229C1.75251 2.21024 3.72409 2.09973 5.80519 2.09973C10.0769 2.09973 14.2392 2.98383 18.4014 4.64151C23.3303 6.4097 30.5594 11.8248 34.7216 17.0189ZM330.896 41.6631C324.653 36.248 317.752 34.9218 312.495 31.2749C308.88 28.2911 308.99 24.3127 310.961 22.3235C315.452 17.3504 324.434 19.3396 326.734 19.8922C329.472 20.5553 330.896 21.3288 333.415 22.5445V16.2453C322.462 12.9299 304.937 9.83558 298.146 21.1078C295.627 25.7493 294.97 34.1482 302.308 39.1213C309.647 44.9784 322.353 47.7412 323.777 52.6038C324.762 55.2561 323.667 57.7978 321.914 59.566C315.452 65.7547 304.28 61.9973 297.598 58.903V65.6442C304.937 68.9596 314.138 69.8437 322.353 68.0755C327.939 66.6388 334.292 61.6658 335.168 55.3666C336.154 49.0674 334.949 45.0889 330.896 41.6631ZM371.423 41.6631C365.18 36.248 358.279 34.9218 353.022 31.2749C349.407 28.2911 349.517 24.3127 351.488 22.3235C355.979 17.3504 364.961 19.3396 367.261 19.8922C369.999 20.5553 371.423 21.3288 373.942 22.5445V16.2453C362.989 12.9299 345.464 9.83558 338.673 21.1078C336.154 25.7493 335.496 34.1482 342.835 39.1213C350.174 44.9784 362.879 47.7412 364.303 52.6038C365.289 55.2561 364.194 57.7978 362.441 59.566C355.869 65.7547 344.807 61.9973 338.125 58.903V65.6442C345.464 68.9596 354.665 69.8437 362.879 68.0755C368.466 66.6388 374.818 61.6658 375.804 55.3666C376.571 49.0674 375.366 45.0889 371.423 41.6631ZM258.276 67.5229H293.436V61.1132H270.434V43.4313H288.836V37.2426H270.434V20.8868H293.436V14.4771H258.276V67.5229ZM157.288 41.6631C151.045 36.248 144.144 34.9218 138.887 31.2749C135.272 28.2911 135.382 24.3127 137.353 22.3235C141.844 17.3504 150.826 19.3396 153.126 19.8922C155.864 20.5553 157.288 21.3288 159.807 22.5445V16.2453C148.854 12.9299 131.329 9.83558 124.538 21.1078C122.019 25.7493 121.361 34.1482 128.7 39.1213C136.039 44.9784 148.744 47.7412 150.168 52.6038C151.154 55.2561 150.059 57.7978 148.306 59.566C141.844 65.7547 130.672 61.9973 123.99 58.903V65.6442C131.329 68.9596 140.53 69.8437 148.744 68.0755C154.331 66.6388 160.683 61.6658 161.669 55.3666C162.436 49.0674 161.231 45.0889 157.288 41.6631ZM84.7778 67.5229H120.047V61.1132H96.9358V43.4313H115.337V37.2426H96.9358V20.8868H120.047V14.4771H84.7778V67.5229ZM190.148 13.9245H167.036V68.186H179.304V64.8706L179.085 48.2938C179.085 48.2938 197.486 49.5094 203.072 41.9946C207.125 37.2426 207.454 29.8383 205.701 23.8706C203.401 17.1294 196.938 14.035 190.148 13.9245ZM192.776 38.3477C189.49 41.9946 183.904 41.442 179.085 41.1105V20.8868C179.085 20.8868 188.943 18.6765 193.105 24.2022C195.405 27.186 195.515 34.5903 192.776 38.3477ZM246.447 41.8841C250.39 37.2426 250.719 29.9488 249.076 24.0916C246.885 17.5714 240.532 14.4771 233.851 14.3666H211.178V67.5229H223.226L223.117 47.9623C223.117 47.9623 225.307 48.1833 228.922 47.9623L240.532 67.6334H253.786L240.423 45.752C242.613 44.8679 245.133 43.6523 246.447 41.8841ZM236.699 38.3477C233.413 41.8841 227.936 41.442 223.336 41.1105V21.2183C223.336 21.2183 232.975 19.0081 237.027 24.4232C239.327 27.407 239.437 34.7008 236.699 38.3477ZM440.319 55.6981C436.485 55.6981 433.418 58.6819 433.418 62.4394C433.418 66.1968 436.485 69.1806 440.319 69.1806C443.933 69.1806 447 66.3073 447 62.4394C447 58.6819 443.933 55.6981 440.319 55.6981ZM440.319 68.407C436.923 68.407 434.075 65.8652 434.075 62.4394C434.075 59.124 436.814 56.4717 440.319 56.4717C443.604 56.4717 446.343 59.2345 446.343 62.4394C446.343 65.8652 443.604 68.407 440.319 68.407Z" fill="white"/>
<path d="M442.181 62.4394C442.4 62.2183 443.386 61.8868 443.386 60.5607C443.386 59.2345 442.509 58.4609 440.976 58.4609H437.361V65.9758H438.566V62.9919H440.647C441.852 62.9919 442.181 63.5445 442.181 64.8706C442.181 65.4232 442.181 65.7547 442.4 66.0863H443.824C443.495 65.7547 443.495 64.8706 443.495 63.9865C443.386 62.7709 442.728 62.4394 442.181 62.4394ZM440.866 61.8868H438.676V59.4555H440.866C441.524 59.4555 442.29 59.5661 442.29 60.6712C442.181 61.4448 441.743 61.8868 440.866 61.8868Z" fill="white"/>
</g>
<defs>
<clipPath id="clip0_368_8129">
<rect width="447" height="82" fill="white"/>
</clipPath>
</defs>
</svg>
