<svg width="318" height="88" viewBox="0 0 318 88" fill="none" xmlns="http://www.w3.org/2000/svg">
<path fill-rule="evenodd" clip-rule="evenodd" d="M63.81 86.8542L47.3751 58.3217C47.0295 57.552 47.2629 56.6218 47.9512 56.1107C48.0487 56.0542 48.1344 55.9948 48.226 55.9532C49.2216 55.6144 50.2202 55.0943 51.1951 54.3751C52.1789 53.656 52.9795 52.8506 53.6117 51.9769C53.6028 51.9917 53.594 52.0007 53.594 52.0066C53.6678 51.9263 53.7387 51.855 53.8274 51.7896C54.5187 51.2844 55.4375 51.3498 56.0549 51.8877L77.8016 76.5509C78.4989 77.5762 78.2891 78.9818 77.3053 79.7485L66.9505 87.3653C66.5515 87.6407 66.0957 87.7736 65.6444 87.7735C64.9461 87.7735 64.2586 87.4553 63.81 86.8542V86.8542ZM23.7015 87.2966L13.3407 79.6798C12.3746 78.919 12.153 77.5222 12.8502 76.497L34.5733 51.8457C35.1908 51.284 36.1303 51.2156 36.8245 51.7298C36.9132 51.7981 36.9929 51.8695 37.0638 51.9437C37.6813 52.8026 38.4819 53.5961 39.4598 54.3093C40.4436 55.0464 41.4451 55.5635 42.4436 55.8993C42.4377 55.8993 42.4289 55.8933 42.423 55.8933C42.5175 55.9379 42.612 55.9825 42.6918 56.0538C43.389 56.556 43.6135 57.4654 43.2945 58.2351L26.8478 86.7855C26.3955 87.3884 25.7035 87.7095 25.004 87.7095C24.552 87.7095 24.0969 87.5754 23.7015 87.2966V87.2966ZM33.5354 47.9794L1.62286 40.96C0.46477 40.5498 -0.176316 39.2868 0.166388 38.0862L4.12222 25.7561C4.53876 24.5852 5.78845 23.9433 6.96428 24.2969L36.8236 37.6048C37.5444 38.0238 37.896 38.9124 37.6419 39.7326C37.6006 39.8366 37.5533 39.9347 37.506 40.0387C36.8886 40.9005 36.3923 41.905 36.023 43.0729C35.6448 44.2409 35.4616 45.3642 35.4616 46.437V46.4132C35.4469 46.5232 35.4203 46.6242 35.3907 46.7372C35.1427 47.4998 34.4371 47.9847 33.6733 47.9847C33.6275 47.9847 33.5815 47.9829 33.5354 47.9794L33.5354 47.9794ZM55.4383 46.6777C55.4058 46.5707 55.3822 46.4667 55.3733 46.3568C55.3674 45.2958 55.1813 44.1814 54.8061 43.0224C54.428 41.8485 53.9258 40.8321 53.3083 39.9584C53.3083 39.9703 53.3171 39.9822 53.3171 39.9852C53.2758 39.896 53.2285 39.7979 53.1872 39.685C52.9331 38.8677 53.2758 38 53.9701 37.572L83.853 24.2583C85.0406 23.9016 86.2903 24.5406 86.7069 25.7204L90.6597 38.0416C91.0084 39.2392 90.3614 40.4993 89.2121 40.9124L57.3262 47.9259C57.2651 47.9323 57.2043 47.9355 57.1436 47.9355C56.3932 47.9355 55.6844 47.4503 55.4384 46.6777H55.4383ZM48.6699 36.6921C47.6713 36.3682 46.5664 36.1988 45.3581 36.1988C44.1409 36.1988 43.0272 36.3682 42.0198 36.6951C42.0286 36.6951 42.0345 36.6951 42.0523 36.6921C41.9459 36.7129 41.8425 36.7249 41.7303 36.7249C40.8824 36.7249 40.1763 36.1246 39.9843 35.3192L36.7197 2.42702C36.7434 1.17885 37.7271 0.168443 38.9591 0.135742H51.7631C52.9892 0.168443 53.9818 1.17885 54.0055 2.41514L50.7469 35.2925C50.5696 36.1097 49.8576 36.7249 48.992 36.7249C48.8797 36.7249 48.7852 36.713 48.67 36.6922L48.6699 36.6921Z" fill="white"/>
<path fill-rule="evenodd" clip-rule="evenodd" d="M121.442 87.864C115.629 87.864 110.114 85.3343 106.689 81.0971C102.682 76.1527 101.646 71.5841 101.646 58.8768V29.1229C101.646 16.418 102.682 11.85 106.689 6.90555C110.115 2.6665 115.63 0.135742 121.442 0.135742C127.217 0.135742 132.823 2.7298 136.072 6.90555C140.078 11.8536 141.115 16.4217 141.115 29.1229V58.8768C141.115 71.5804 140.078 76.1491 136.072 81.0971C132.647 85.3343 127.178 87.864 121.442 87.864ZM121.443 12.0108C118.159 12.0108 115.77 14.0591 114.887 17.6305C114.479 19.4076 114.255 23.9881 114.255 30.5282V57.4737C114.255 65.5091 114.503 69.3395 115.138 71.1352C116.151 74.2194 118.449 75.9882 121.443 75.9882C124.604 75.9882 127.008 73.8885 127.874 70.3714C128.288 68.5545 128.507 64.0945 128.507 57.4737V30.5282C128.507 22.3979 128.267 18.6945 127.623 16.8637C126.609 13.7796 124.356 12.0107 121.443 12.0107V12.0108Z" fill="white"/>
<path fill-rule="evenodd" clip-rule="evenodd" d="M164.696 86.5909H164.693L152.087 86.5876V1.41211H169.742C184.306 1.41211 190.8 9.01303 190.8 26.0574C190.8 37.1148 188.51 42.9293 182.351 47.511L192.061 86.5835L178.696 86.5876L170.752 50.9584H164.696V86.5876L164.696 86.5909ZM164.696 13.2871V39.0826H168.732C172.995 39.0826 174.636 38.4813 176.047 36.402C177.37 34.2577 178.192 30.3427 178.192 26.1848C178.192 21.393 177.248 17.4313 175.669 15.5873C174.426 13.8245 172.805 13.2871 168.732 13.2871L164.696 13.2871Z" fill="white"/>
<path fill-rule="evenodd" clip-rule="evenodd" d="M201.768 86.589H214.38V1.4126H201.768V86.589Z" fill="white"/>
<path fill-rule="evenodd" clip-rule="evenodd" d="M245.024 87.864C239.209 87.864 233.693 85.3343 230.268 81.0971C226.262 76.1527 225.225 71.5841 225.225 58.8768V29.1229C225.225 16.418 226.262 11.85 230.268 6.90555C233.694 2.6665 239.211 0.135742 245.024 0.135742C250.797 0.135742 256.402 2.7298 259.651 6.90555C263.657 11.85 264.694 16.418 264.694 29.1229V58.8768C264.694 71.5841 263.657 76.1527 259.651 81.0971C256.229 85.3343 250.761 87.864 245.024 87.864ZM245.025 12.0108C241.739 12.0108 239.349 14.0591 238.466 17.6305C238.06 19.3993 237.837 23.9798 237.837 30.5282V57.4737C237.837 65.5151 238.084 69.3454 238.717 71.1352C239.733 74.2194 242.032 75.9882 245.025 75.9882C248.183 75.9882 250.587 73.8885 251.456 70.3714C251.866 68.5572 252.083 64.0972 252.083 57.4737V30.5282C252.083 22.3918 251.844 18.6884 251.202 16.8637C250.188 13.7796 247.937 12.0107 245.025 12.0107L245.025 12.0108Z" fill="white"/>
<path fill-rule="evenodd" clip-rule="evenodd" d="M305.679 86.589L287.393 33.9756V86.589H275.667V1.4126H288.403L305.679 51.9813V1.4126H317.406V86.589H305.679Z" fill="white"/>
</svg>
