<svg width="601" height="80" viewBox="0 0 601 80" fill="none" xmlns="http://www.w3.org/2000/svg">
<path d="M599.807 25.1518L592.97 31.9889C590.192 29.2378 587.67 27.8623 585.404 27.8623C584.164 27.8623 583.193 28.132 582.492 28.6715C581.79 29.1839 581.44 29.8312 581.44 30.6133C581.44 31.2067 581.656 31.7596 582.087 32.2721C582.546 32.7575 583.651 33.4318 585.404 34.2949L589.45 36.3177C593.711 38.4214 596.638 40.5656 598.229 42.7502C599.82 44.9349 600.616 47.4971 600.616 50.4369C600.616 54.3477 599.173 57.6112 596.287 60.2273C593.428 62.8435 589.585 64.1516 584.757 64.1516C578.338 64.1516 573.214 61.6433 569.384 56.6267L576.18 49.2232C577.475 50.7336 578.985 51.9608 580.712 52.9048C582.465 53.8218 584.015 54.2803 585.364 54.2803C586.82 54.2803 587.994 53.9296 588.884 53.2284C589.774 52.5272 590.219 51.718 590.219 50.801C590.219 49.1019 588.614 47.4432 585.404 45.8249L581.682 43.9639C574.562 40.3768 571.002 35.8861 571.002 30.492C571.002 27.0127 572.337 24.046 575.007 21.5916C577.704 19.1103 581.143 17.8696 585.324 17.8696C588.182 17.8696 590.866 18.5034 593.374 19.7711C595.91 21.0117 598.054 22.8053 599.807 25.1518Z" fill="white"/>
<path d="M523.099 19.0024H534.103V23.493C536.611 21.3893 538.877 19.9329 540.899 19.1238C542.949 18.2877 545.039 17.8696 547.17 17.8696C551.539 17.8696 555.248 19.3935 558.296 22.4412C560.858 25.0304 562.139 28.8602 562.139 33.9308V63.0188H551.216V43.7212C551.216 38.4619 550.973 34.9691 550.488 33.243C550.029 31.5169 549.206 30.2088 548.02 29.3187C546.86 28.4017 545.417 27.9432 543.691 27.9432C541.452 27.9432 539.524 28.6984 537.906 30.2088C536.314 31.6922 535.209 33.7555 534.588 36.3986C534.265 37.7741 534.103 40.7544 534.103 45.3394V63.0188H523.099V19.0024Z" fill="white"/>
<path d="M490.698 17.8696C494.852 17.8696 498.749 18.908 502.39 20.9848C506.058 23.0615 508.917 25.88 510.967 29.4401C513.017 33.0003 514.041 36.8436 514.041 40.9702C514.041 45.1237 513.003 49.0075 510.926 52.6216C508.876 56.2356 506.072 59.0676 502.511 61.1174C498.951 63.1402 495.027 64.1516 490.739 64.1516C484.427 64.1516 479.033 61.913 474.556 57.4358C470.106 52.9317 467.881 47.4701 467.881 41.0511C467.881 34.1735 470.403 28.4422 475.446 23.8572C479.869 19.8655 484.953 17.8696 490.698 17.8696ZM490.86 28.2669C487.435 28.2669 484.576 29.4671 482.283 31.8675C480.018 34.2409 478.885 37.2886 478.885 41.0106C478.885 44.8405 480.004 47.9421 482.243 50.3155C484.508 52.689 487.367 53.8757 490.82 53.8757C494.272 53.8757 497.144 52.6755 499.437 50.2751C501.729 47.8747 502.875 44.7865 502.875 41.0106C502.875 37.2347 501.743 34.1735 499.477 31.827C497.239 29.4536 494.366 28.2669 490.86 28.2669Z" fill="white"/>
<path d="M454.446 0.87793C456.388 0.87793 458.046 1.57917 459.422 2.98165C460.824 4.38414 461.525 6.0833 461.525 8.07914C461.525 10.048 460.838 11.7337 459.462 13.1362C458.087 14.5117 456.441 15.1994 454.527 15.1994C452.558 15.1994 450.872 14.4982 449.47 13.0957C448.094 11.6663 447.406 9.94013 447.406 7.91732C447.406 5.97542 448.094 4.31671 449.47 2.9412C450.845 1.56569 452.504 0.87793 454.446 0.87793ZM448.903 19.0023H459.988V63.0187H448.903V19.0023Z" fill="white"/>
<path d="M426.614 2.7793H437.618V19.0023H444.172V28.5095H437.618V63.0187H426.614V28.5095H420.95V19.0023H426.614V2.7793Z" fill="white"/>
<path d="M375.475 19.0029H386.641V40.202C386.641 44.3285 386.924 47.2009 387.49 48.8192C388.056 50.4105 388.96 51.6511 390.201 52.5412C391.468 53.4312 393.019 53.8762 394.853 53.8762C396.687 53.8762 398.238 53.4447 399.506 52.5816C400.8 51.6916 401.758 50.397 402.378 48.6978C402.837 47.4302 403.066 44.7196 403.066 40.5661V19.0029H414.151V37.6533C414.151 45.34 413.544 50.5993 412.33 53.4312C410.847 56.8835 408.662 59.5401 405.776 61.4011C402.89 63.2351 399.222 64.1521 394.772 64.1521C389.944 64.1521 386.034 63.0733 383.04 60.9156C380.073 58.7579 377.983 55.7507 376.769 51.8939C375.906 49.2238 375.475 44.369 375.475 37.3296V19.0029Z" fill="white"/>
<path d="M354.439 2.01123H365.484V63.0193H354.439V2.01123Z" fill="white"/>
<path d="M323.206 17.8696C327.36 17.8696 331.257 18.908 334.898 20.9848C338.566 23.0615 341.425 25.88 343.475 29.4401C345.524 33.0003 346.549 36.8436 346.549 40.9702C346.549 45.1237 345.511 49.0075 343.434 52.6216C341.384 56.2356 338.579 59.0676 335.019 61.1174C331.459 63.1402 327.535 64.1516 323.246 64.1516C316.935 64.1516 311.541 61.913 307.064 57.4358C302.614 52.9317 300.389 47.4701 300.389 41.0511C300.389 34.1735 302.91 28.4422 307.954 23.8572C312.377 19.8655 317.461 17.8696 323.206 17.8696ZM323.368 28.2669C319.943 28.2669 317.084 29.4671 314.791 31.8675C312.526 34.2409 311.393 37.2886 311.393 41.0106C311.393 44.8405 312.512 47.9421 314.751 50.3155C317.016 52.689 319.875 53.8757 323.327 53.8757C326.78 53.8757 329.652 52.6755 331.945 50.2751C334.237 47.8747 335.383 44.7865 335.383 41.0106C335.383 37.2347 334.251 34.1735 331.985 31.827C329.746 29.4536 326.874 28.2669 323.368 28.2669Z" fill="white"/>
<path d="M292.987 25.1518L286.149 31.9889C283.371 29.2378 280.85 27.8623 278.584 27.8623C277.344 27.8623 276.373 28.132 275.671 28.6715C274.97 29.1839 274.619 29.8312 274.619 30.6133C274.619 31.2067 274.835 31.7596 275.267 32.2721C275.725 32.7575 276.831 33.4318 278.584 34.2949L282.63 36.3177C286.891 38.4214 289.818 40.5656 291.409 42.7502C293 44.9349 293.796 47.4971 293.796 50.4369C293.796 54.3477 292.353 57.6112 289.467 60.2273C286.608 62.8435 282.765 64.1516 277.937 64.1516C271.518 64.1516 266.393 61.6433 262.563 56.6267L269.36 49.2232C270.655 50.7336 272.165 51.9608 273.891 52.9048C275.644 53.8218 277.195 54.2803 278.544 54.2803C280 54.2803 281.173 53.9296 282.063 53.2284C282.953 52.5272 283.398 51.718 283.398 50.801C283.398 49.1019 281.794 47.4432 278.584 45.8249L274.862 43.9639C267.742 40.3768 264.182 35.8861 264.182 30.492C264.182 27.0127 265.517 24.046 268.187 21.5916C270.884 19.1103 274.323 17.8696 278.503 17.8696C281.362 17.8696 284.046 18.5034 286.554 19.7711C289.089 21.0117 291.233 22.8053 292.987 25.1518Z" fill="white"/>
<path d="M213.085 19.0029H224.372L235.821 46.6346L248.444 19.0029H259.771L232.18 79.1209H220.772L229.834 59.7424L213.085 19.0029Z" fill="white"/>
<path d="M194.474 2.7793H205.479V19.0023H212.032V28.5095H205.479V63.0187H194.474V28.5095H188.811V19.0023H194.474V2.7793Z" fill="white"/>
<path d="M177.565 0.87793C179.507 0.87793 181.165 1.57917 182.541 2.98165C183.943 4.38414 184.645 6.0833 184.645 8.07914C184.645 10.048 183.957 11.7337 182.581 13.1362C181.206 14.5117 179.561 15.1994 177.646 15.1994C175.677 15.1994 173.991 14.4982 172.589 13.0957C171.213 11.6663 170.525 9.94013 170.525 7.91732C170.525 5.97542 171.213 4.31671 172.589 2.9412C173.964 1.56569 175.623 0.87793 177.565 0.87793ZM172.022 19.0023H183.107V63.0187H172.022V19.0023Z" fill="white"/>
<path d="M123.472 19.0024H134.476V23.493C136.984 21.3893 139.25 19.9329 141.272 19.1238C143.322 18.2877 145.412 17.8696 147.543 17.8696C151.912 17.8696 155.621 19.3935 158.669 22.4412C161.231 25.0304 162.512 28.8602 162.512 33.9308V63.0188H151.589V43.7212C151.589 38.4619 151.346 34.9691 150.861 33.243C150.402 31.5169 149.579 30.2088 148.393 29.3187C147.233 28.4017 145.79 27.9432 144.064 27.9432C141.825 27.9432 139.897 28.6984 138.279 30.2088C136.687 31.6922 135.582 33.7555 134.961 36.3986C134.638 37.7741 134.476 40.7544 134.476 45.3394V63.0188H123.472V19.0024Z" fill="white"/>
<path d="M107.9 0.87793C109.842 0.87793 111.5 1.57917 112.876 2.98165C114.278 4.38414 114.98 6.0833 114.98 8.07914C114.98 10.048 114.292 11.7337 112.916 13.1362C111.541 14.5117 109.896 15.1994 107.981 15.1994C106.012 15.1994 104.326 14.4982 102.924 13.0957C101.548 11.6663 100.86 9.94013 100.86 7.91732C100.86 5.97542 101.548 4.31671 102.924 2.9412C104.299 1.56569 105.958 0.87793 107.9 0.87793ZM102.357 19.0023H113.442V63.0187H102.357V19.0023Z" fill="white"/>
<path d="M75.0869 19.0023H79.0112C79.0381 13.2306 79.1325 9.81876 79.2944 8.7669C79.591 6.33953 80.6024 4.4246 82.3286 3.02211C84.0817 1.59266 86.5495 0.87793 89.7321 0.87793C92.0246 0.87793 94.6138 1.40386 97.4997 2.45572V10.8706C95.9084 10.4121 94.6003 10.1829 93.5754 10.1829C92.2808 10.1829 91.3368 10.4526 90.7435 10.992C90.3119 11.3966 90.0962 12.2327 90.0962 13.5003L90.0557 19.0023H97.0547V28.3882H90.0557V63.0187H79.0112V28.3882H75.0869V19.0023Z" fill="white"/>
<path d="M51.8672 19.0023H55.7914C55.8184 13.2306 55.9128 9.81876 56.0746 8.7669C56.3713 6.33953 57.3827 4.4246 59.1089 3.02211C60.862 1.59266 63.3298 0.87793 66.5124 0.87793C68.8049 0.87793 71.3941 1.40386 74.28 2.45572V10.8706C72.6887 10.4121 71.3806 10.1829 70.3557 10.1829C69.0611 10.1829 68.1171 10.4526 67.5238 10.992C67.0922 11.3966 66.8765 12.2327 66.8765 13.5003L66.836 19.0023H73.8349V28.3882H66.836V63.0187H55.7914V28.3882H51.8672V19.0023Z" fill="white"/>
<path d="M34.9559 19.0024H45.96V63.0188H34.9559V58.3663C32.7982 60.4161 30.6271 61.8995 28.4424 62.8165C26.2848 63.7066 23.9383 64.1516 21.403 64.1516C15.7122 64.1516 10.79 61.9535 6.63651 57.5572C2.483 53.134 0.40625 47.6454 0.40625 41.0915C0.40625 34.2949 2.41558 28.7254 6.43423 24.3831C10.4529 20.0408 15.3346 17.8696 21.0794 17.8696C23.7225 17.8696 26.2039 18.3686 28.5233 19.3665C30.8428 20.3644 32.987 21.8613 34.9559 23.8572V19.0024ZM23.3449 28.0646C19.9197 28.0646 17.0742 29.2783 14.8087 31.7057C12.5431 34.1061 11.4104 37.1942 11.4104 40.9702C11.4104 44.773 12.5566 47.9017 14.8491 50.356C17.1686 52.8104 20.014 54.0375 23.3854 54.0375C26.8646 54.0375 29.7505 52.8373 32.043 50.4369C34.3356 48.0095 35.4818 44.8405 35.4818 40.9297C35.4818 37.0998 34.3356 33.9982 32.043 31.6248C29.7505 29.2513 26.8512 28.0646 23.3449 28.0646Z" fill="white"/>
</svg>
