<svg width="289" height="86" viewBox="0 0 289 86" fill="none" xmlns="http://www.w3.org/2000/svg">
<g clip-path="url(#clip0_367_8086)">
<path d="M288.6 57.4386H247.181C246.67 64.3069 251.625 73.3604 261.409 72.7925C265.734 72.5414 269.344 71.0023 271.486 66.8995C271.687 66.5167 272.284 66.1176 272.705 66.1135C277.66 66.06 282.619 66.0764 287.799 66.0764C285.836 72.9159 282.034 78.0394 276.11 81.5003C270.554 84.7472 264.487 85.599 258.171 85.1217C252.668 84.706 247.39 83.5085 242.741 80.3521C236.997 76.455 233.923 70.7884 232.483 64.1258C230.541 55.1093 230.276 46.1217 233.947 37.4674C238.109 27.6608 245.799 22.5908 256.233 21.6237C261.004 21.1834 265.763 21.3028 270.387 22.7595C277.627 25.0394 282.509 29.8912 285.321 36.9036C287.909 43.3604 288.751 50.1052 288.596 57.4344L288.6 57.4386ZM272.431 47.4674C272.312 39.8048 266.082 33.7102 259.336 34.0805C252.467 34.4591 247.332 42.0846 247.847 47.4674H272.431Z" fill="white"/>
<path d="M24.3617 23.0765H39.231V31.4427C39.4968 31.6155 39.7625 31.7884 40.0283 31.9653C40.2 31.5291 40.2981 31.0353 40.5597 30.669C45.8583 23.2904 53.2173 20.6937 61.9664 21.4509C72.6084 22.3686 78.8881 30.846 78.8962 40.4057C78.9085 54.1834 78.929 67.9612 78.9412 81.739C78.9412 82.6238 79.0843 83.595 77.6984 83.5867C73.0131 83.5703 68.3278 83.5785 63.4423 83.5785C63.3891 82.5909 63.3114 81.7966 63.3114 81.0024C63.3033 69.9653 63.3319 58.9283 63.2787 47.8913C63.2665 45.776 63.0416 43.6485 62.7268 41.5579C62.2035 38.0682 60.0939 36.0024 56.721 35.0847C50.9155 33.5003 44.5459 35.3686 42.0724 39.8871C40.9645 41.9118 40.1918 44.3974 40.1468 46.6937C39.9179 58.1382 39.9179 69.5867 39.9874 81.0312C39.9996 83.1629 39.3782 83.7061 37.3422 83.6361C33.0699 83.4839 28.7853 83.5909 24.3535 83.5909V23.0765H24.3617Z" fill="white"/>
<path d="M123.308 61.9859H139.073C138.803 63.4057 138.643 64.7267 138.292 65.9901C135.332 76.5991 125.773 84.3934 114.82 85.3234C109.089 85.809 103.532 85.3563 98.2789 82.8172C91.668 79.6238 87.5797 74.2041 85.5232 67.2987C82.596 57.4839 82.9394 47.632 86.4063 38.0189C90.3802 27.0024 100.033 21.0765 112.633 21.4098C119.722 21.595 126.219 23.3028 131.652 28.1423C136.448 32.4139 138.79 37.8419 139.187 44.3481C138.68 44.418 138.234 44.5292 137.789 44.5292C133.565 44.5415 129.342 44.4962 125.119 44.5662C123.872 44.5868 123.418 44.1835 123.071 42.9407C121.832 38.5209 119.097 35.4345 114.452 34.6156C109.755 33.7843 105.928 35.5456 103.377 39.5127C102.073 41.5415 101.043 43.8995 100.519 46.2493C99.2356 52.023 99.5136 57.8419 101.235 63.5168C103.03 69.4345 107.134 72.665 112.265 72.4057C118.058 72.1135 122.089 68.3645 123.308 61.9818V61.9859Z" fill="white"/>
<path d="M142.974 22.9694C145.337 22.9694 147.504 22.8583 149.654 23.0065C151.429 23.1299 152.025 22.5168 152.074 20.7266C152.23 15.1011 153.959 10.0805 158.321 6.29042C162.021 3.07642 166.531 1.80894 171.249 1.17931C173.179 0.924162 175.133 0.866549 177.23 0.706055V13.3192C174.237 13.9159 170.685 13.2451 168.931 16.3851C167.925 18.1834 167.725 20.4427 167.038 22.9406H177.7V34.204C175.035 34.204 172.402 34.3069 169.777 34.167C167.999 34.0723 167.455 34.6073 167.463 36.4509C167.537 51.2657 167.504 66.0764 167.508 80.8912C167.508 81.6937 167.508 82.5003 167.508 83.5661C162.471 83.5661 157.659 83.5867 152.843 83.5209C152.524 83.5168 152.079 82.883 151.944 82.4591C151.784 81.9612 151.895 81.3727 151.895 80.8254C151.895 66.0106 151.866 51.1999 151.927 36.3851C151.935 34.7019 151.514 34.0394 149.777 34.1711C148.015 34.3069 146.228 34.2863 144.47 34.1464C143.943 34.1052 143.056 33.4344 143.039 33.0229C142.921 29.7513 142.974 26.4756 142.974 22.9694Z" fill="white"/>
<path d="M208.301 83.4716V1.8667H223.939C223.939 2.66094 223.939 3.38933 223.939 4.12184C223.939 29.8214 223.918 55.521 223.98 81.2206C223.984 83.1218 223.464 83.7021 221.588 83.6321C217.847 83.4963 214.098 83.5951 210.357 83.5869C209.695 83.5869 209.037 83.5169 208.305 83.4758L208.301 83.4716Z" fill="white"/>
<path d="M184.993 23.0723H200.545V83.4344H184.993V23.0723Z" fill="white"/>
<path d="M1.17288 23.1216H16.6923V83.5866C13.6097 83.5866 10.6333 83.6278 7.65701 83.5743C5.57195 83.5372 2.8164 84.1216 1.60625 83.0269C0.55554 82.0763 1.18515 79.1668 1.18515 77.1216C1.16879 60.0434 1.17288 42.9693 1.17288 25.8911C1.17288 25.0146 1.17288 24.138 1.17288 23.1216Z" fill="white"/>
<path d="M201.02 8.41794C201.09 12.6895 197.516 16.3192 193.117 16.4467C188.698 16.5743 184.969 12.9776 184.924 8.5414C184.879 4.1916 188.375 0.61547 192.782 0.500243C197.193 0.385017 200.947 3.99407 201.02 8.41794Z" fill="white"/>
<path d="M8.5642 16.4465C4.15695 16.4835 0.649146 12.9815 0.61644 8.50823C0.583733 4.09259 4.06292 0.565843 8.51105 0.504115C12.8774 0.446502 16.516 3.96914 16.6142 8.35185C16.7123 12.7675 13.0941 16.4095 8.5642 16.4465Z" fill="white"/>
</g>
<defs>
<clipPath id="clip0_367_8086">
<rect width="288" height="85" fill="white" transform="translate(0.616211 0.5)"/>
</clipPath>
</defs>
</svg>
