<svg width="501" height="66" viewBox="0 0 501 66" fill="none" xmlns="http://www.w3.org/2000/svg">
<path d="M40.8154 58.4237C35.6504 64.0958 29.9071 65.6244 23.3159 65.6244C16.3007 65.6244 10.9815 63.1303 6.58731 58.4237C0.265898 51.6655 0.497169 42.6545 0.497169 32.9999C0.497169 23.3454 0.265898 14.3344 6.58731 7.5762C10.9815 2.90982 16.0694 0.375488 23.3159 0.375488C38.8111 0.375488 45.3638 11.1162 46.8285 21.6558H31.95C30.7551 16.7883 28.4039 14.4551 23.3159 14.4551C20.6178 14.4551 18.5749 15.7021 17.4956 17.2308C16.1465 19.1215 15.2985 21.2938 15.2985 32.9999C15.2985 44.7061 16.1465 46.9589 17.4956 48.8496C18.5749 50.3782 20.6178 51.5448 23.3159 51.5448C26.4381 51.5448 28.5581 50.5793 29.9071 49.0105C31.6031 47.2002 32.1813 44.5854 32.1813 42.1718V41.2868H23.3159V28.1324H46.9056V37.0629C46.9056 47.4416 45.3638 53.4757 40.8154 58.4237Z" fill="white"/>
<path d="M137.335 65.1014L126.658 41.2063H121.686V65.1014H106.885V0.898438H130.706C144.081 0.898438 151.25 10.9955 151.25 21.5351C151.25 30.2645 146.162 35.7756 141.46 38.31L154.488 65.1014H137.335ZM130.05 15.0585H121.686V28.0117H130.05C134.098 28.0117 136.449 24.874 136.449 21.5351C136.449 18.1962 134.098 15.0585 130.05 15.0585Z" fill="white"/>
<path d="M197.885 58.7857C193.761 63.2107 187.902 65.1014 181.658 65.1014H159.34V0.898438H181.658C187.902 0.898438 193.761 2.78913 197.885 7.21415C204.9 14.6965 204.129 22.9028 204.129 32.9999C204.129 43.097 204.9 51.3034 197.885 58.7857ZM187.748 18.5583C186.399 16.4262 184.356 14.9378 180.655 14.9378H174.141V51.0218H180.655C184.394 51.0218 186.399 49.5736 187.748 47.4014C188.904 45.5911 189.367 43.8613 189.367 32.9597C189.367 22.0581 188.943 20.3283 187.748 18.5181" fill="white"/>
<path d="M232.158 25.236L237.207 42.3729H226.723L232.158 25.236ZM237.477 0.898438H226.067L204.174 65.1014H219.63L222.598 55.5675H235.087L238.132 46.7175L244.531 65.1014H259.371L237.477 0.898438Z" fill="white"/>
<path d="M74.8881 25.236L79.9761 42.3729H69.4918L74.8881 25.236ZM80.2073 0.898438H68.798L46.9043 65.1014H62.3609L65.3289 55.5675H77.8175L80.8626 46.7175L87.2611 65.1014H102.101L80.2073 0.898438Z" fill="white"/>
<path d="M291.628 0.898438L283.765 34.8102L274.051 0.898438H263.567L253.854 34.7297L261.563 57.0962L268.809 33.4424L278.522 65.1014H290.626L307.084 0.898438H291.628Z" fill="white"/>
<path d="M493.84 58.7857C489.716 63.2107 483.857 65.1014 477.613 65.1014H455.295V0.898438H477.613C483.895 0.898438 489.716 2.78913 493.84 7.21415C500.855 14.6965 500.084 22.9028 500.084 32.9999C500.084 43.097 500.817 51.3034 493.84 58.7857ZM483.703 18.5583C482.354 16.4262 480.349 14.9378 476.61 14.9378H470.096V51.0218H476.61C480.349 51.0218 482.354 49.5736 483.703 47.4014C484.898 45.5911 485.322 43.8613 485.322 32.9597C485.322 22.0581 484.898 20.3283 483.703 18.5181" fill="white"/>
<path d="M346.871 58.4237C342.476 63.1303 337.389 65.6244 330.065 65.6244C322.741 65.6244 317.653 63.1303 313.221 58.4237C306.861 51.6655 307.131 42.6545 307.131 32.9999C307.131 23.3454 306.861 14.3344 313.221 7.5762C317.615 2.86959 322.703 0.375488 330.065 0.375488C337.427 0.375488 342.476 2.90982 346.871 7.5762C353.192 14.3344 352.922 23.3454 352.922 32.9999C352.922 42.6545 353.192 51.6655 346.871 58.4237ZM335.962 17.2308C334.883 15.7021 332.763 14.4551 330.065 14.4551C327.367 14.4551 325.247 15.7424 324.129 17.2308C322.78 19.1215 321.932 21.2938 321.932 32.9999C321.932 44.7061 322.78 46.798 324.129 48.6886C325.247 50.2173 327.367 51.585 330.065 51.585C332.763 51.585 334.883 50.2173 335.962 48.6886C337.311 46.798 338.159 44.7464 338.159 32.9999C338.159 21.2535 337.311 19.1215 335.962 17.2308Z" fill="white"/>
<path d="M388.256 65.1014L377.617 41.2063H372.645V65.1014H357.844V0.898438H381.703C395.04 0.898438 402.248 10.9955 402.248 21.5351C402.248 30.2645 397.198 35.7756 392.457 38.31L405.486 65.1014H388.294H388.256ZM380.971 15.0585H372.607V28.0117H380.971C385.018 28.0117 387.408 24.874 387.408 21.5351C387.408 18.1962 385.018 15.0585 380.971 15.0585Z" fill="white"/>
<path d="M450.396 51.0621H425.11V0.898438H410.348V65.1014H450.396V51.0621Z" fill="white"/>
</svg>
