<svg width="410" height="122" viewBox="0 0 410 122" fill="none" xmlns="http://www.w3.org/2000/svg">
<path d="M79.9057 24.3159L18.6262 44.7458C16.8427 45.5702 14.9013 45.9973 12.9365 45.9973C10.9717 45.9973 9.03033 45.5702 7.24687 44.7458C4.39015 43.3163 2.21816 40.8108 1.2086 37.7801C0.678541 36.3078 0.466908 34.7398 0.587683 33.1796C0.708458 31.6194 1.15889 30.1027 1.90923 28.7295C2.8859 27.0105 4.21961 25.5208 5.82052 24.3607C7.42144 23.2006 9.25238 22.397 11.19 22.0041L72.4798 1.56743C74.2619 0.742642 76.2022 0.31543 78.166 0.31543C80.1298 0.31543 82.0701 0.742642 83.8523 1.56743C85.2678 2.27327 86.5297 3.25209 87.5654 4.44755C88.6011 5.643 89.3902 7.03149 89.8871 8.5331C90.4194 10.005 90.6321 11.5733 90.5113 13.1339C90.3905 14.6944 89.9389 16.2113 89.1865 17.5837C88.1808 19.2801 86.8386 20.7528 85.2426 21.9111C83.6465 23.0694 81.8303 23.889 79.9057 24.3192" fill="white"/>
<path d="M79.9057 62.1606L18.6262 82.5803C16.8427 83.4048 14.9013 83.8318 12.9365 83.8318C10.9717 83.8318 9.03033 83.4048 7.24687 82.5803C4.3915 81.1525 2.21971 78.6495 1.2086 75.6214C0.678541 74.1491 0.466908 72.5811 0.587683 71.0209C0.708458 69.4608 1.15889 67.944 1.90923 66.5708C2.8848 64.8499 4.21803 63.3582 5.81901 62.1963C7.41998 61.0344 9.25149 60.2293 11.19 59.8353L72.4798 39.4087C74.2619 38.584 76.2022 38.1567 78.166 38.1567C80.1298 38.1567 82.0701 38.584 83.8523 39.4087C85.2667 40.1136 86.5279 41.0909 87.5635 42.2845C88.5992 43.4781 89.3888 44.8646 89.8871 46.3643C90.4194 47.8362 90.6321 49.4045 90.5113 50.965C90.3905 52.5255 89.9389 54.0424 89.1865 55.4149C88.1811 57.1115 86.839 58.5844 85.2429 59.7427C83.6468 60.9011 81.8305 61.7205 79.9057 62.1504" fill="white"/>
<path d="M79.9053 100L18.6257 120.43C16.8426 121.256 14.9011 121.684 12.9361 121.684C10.971 121.684 9.02955 121.256 7.24645 120.43C5.83161 119.722 4.57014 118.742 3.53408 117.546C2.49803 116.351 1.70768 114.963 1.20818 113.461C0.678408 111.989 0.466923 110.422 0.587698 108.862C0.708472 107.303 1.15876 105.787 1.90881 104.414C2.88438 102.693 4.21761 101.201 5.81859 100.04C7.41957 98.8776 9.25107 98.0725 11.1896 97.6785L72.4793 77.2486C74.2615 76.4238 76.2018 75.9966 78.1656 75.9966C80.1294 75.9966 82.0697 76.4238 83.8519 77.2486C85.2675 77.9551 86.5294 78.9346 87.5651 80.1306C88.6008 81.3266 89.3898 82.7156 89.8867 84.2176C90.4187 85.689 90.6313 87.2568 90.5105 88.8167C90.3897 90.3766 89.9382 91.8929 89.1861 93.2649C88.1805 94.9614 86.8384 96.4341 85.2423 97.5925C83.6462 98.7509 81.83 99.5703 79.9053 100" fill="white"/>
<path d="M185.989 89.7859V97.2119H144.906V31.979H185.759V39.4253H152.566V59.6217H182.744V67.0476H152.566V89.5659H185.989V89.7859Z" fill="white"/>
<path d="M260.043 64.7122V97.2051H252.617V66.5704C252.617 59.6115 249.828 56.3554 244.026 56.3554C241.77 56.3922 239.548 56.9076 237.505 57.8674C235.463 58.8272 233.648 60.2096 232.18 61.9232C232.18 62.854 232.414 63.7814 232.414 64.7122V97.2051H224.988V66.5704C224.988 59.6115 222.199 56.3554 216.397 56.3554C214.146 56.4163 211.931 56.9423 209.892 57.9005C207.853 58.8587 206.035 60.2283 204.551 61.9232V97.2152H197.125V49.8534H203.854V54.9643C205.59 53.0601 207.705 51.5396 210.063 50.5004C212.422 49.4612 214.971 48.9261 217.548 48.9294C220.033 48.749 222.519 49.2611 224.729 50.409C226.94 51.5569 228.79 53.2954 230.071 55.4314C234.055 51.3736 239.471 49.0393 245.157 48.9294C254.678 48.9294 260.016 54.9643 260.016 64.7122" fill="white"/>
<path d="M303.449 74.9269V72.1379C303.449 63.0873 299.049 55.8914 289.754 55.8914C280.46 55.8914 276.283 62.8605 276.283 72.1379V74.9269C276.283 83.9843 280.463 91.1733 289.754 91.1733C299.045 91.1733 303.449 83.9809 303.449 74.9269ZM268.857 75.157V72.1379C268.857 59.3743 276.05 48.9258 289.978 48.9258C303.679 48.9258 311.105 59.3709 311.105 72.1379V75.157C311.105 87.9274 303.679 98.3759 289.978 98.3759C276.277 98.3759 268.857 87.9308 268.857 75.157Z" fill="white"/>
<path d="M349.646 84.2021V62.6281C348.382 60.6481 346.626 59.0297 344.55 57.931C342.474 56.8324 340.148 56.291 337.8 56.3597C328.976 56.3597 325.029 63.0851 325.029 72.1425V74.9315C325.029 83.9821 329.209 90.7142 337.8 90.7142C340.161 90.7101 342.483 90.1126 344.553 88.9764C346.623 87.8403 348.375 86.202 349.646 84.2122M357.072 29.1909V97.2229H350.336V92.1121C348.665 94.0338 346.595 95.5689 344.27 96.611C341.946 97.6531 339.423 98.1771 336.876 98.1469C324.112 98.1469 317.38 87.932 317.38 75.3952V72.3794C317.38 59.609 324.339 49.6276 336.876 49.6276C341.642 49.5708 346.235 51.4092 349.646 54.7385V29.4278H357.072V29.1909Z" fill="white"/>
<path d="M401.652 74.9269V72.1379C401.652 63.0873 397.252 55.8914 387.948 55.8914C378.643 55.8914 374.487 62.8605 374.487 72.1379V74.9269C374.487 83.9843 378.667 91.1733 387.948 91.1733C397.228 91.1733 401.652 83.9809 401.652 74.9269ZM366.827 75.157V72.1379C366.827 59.3743 374.02 48.9258 387.948 48.9258C401.652 48.9258 409.075 59.3709 409.075 72.1379V75.157C409.075 87.9274 401.649 98.3759 387.948 98.3759C374.246 98.3759 366.827 87.9308 366.827 75.157Z" fill="white"/>
</svg>
