<svg width="477" height="88" viewBox="0 0 477 88" fill="none" xmlns="http://www.w3.org/2000/svg">
<mask id="mask0_366_8073" style="mask-type:luminance" maskUnits="userSpaceOnUse" x="2" y="2" width="473" height="84">
<path d="M2.87695 85.6138H474.12V2.38744H2.87695V85.6138Z" fill="white"/>
</mask>
<g mask="url(#mask0_366_8073)">
<path d="M392.866 71.7746V81.0126H443.399V71.7427H433.838L431.338 71.6007C430.327 71.3311 429.622 70.6267 429.365 69.876L429.154 67.8498V53.2405L429.535 51.8637C430.211 51.0607 456.349 21.1205 457.554 19.8103C460.074 16.9029 461.444 16.2768 464.82 16.2768H474.117V7.09093H432.483V16.2768H438.717C440.566 16.2768 441.081 18.158 440.283 19.161L422.59 39.8951L422.084 39.8371L404.848 19.161C403.605 17.6247 404.631 16.2768 405.981 16.2768H412.105V7.09093H361.298V16.2768H370.35C374.28 16.2768 376.832 18.7812 378.329 20.4103C379.502 21.6915 405.371 51.1187 405.981 51.9564C406.626 52.7652 406.626 52.884 406.626 53.2405V67.8498L406.461 69.876C406.065 70.6267 405.446 71.3311 404.464 71.6007L401.921 71.7746H392.866ZM237.381 7.09093V16.3029H245.43C251.265 16.3029 251.69 19.5755 251.69 22.3785V65.6439C251.69 68.2382 251.84 71.7746 248.112 71.7746H238.121V81.0126H280.695V71.7746H270.319C266.207 71.7746 265.967 69.9078 265.898 65.8236V28.799L324.271 81.0126H339.1L338.322 22.0335C338.426 17.7522 338.663 16.2768 343.073 16.2768H352.388V7.09093H309.055V16.2768H318.598C322.933 16.2768 323.71 18.0131 323.733 22.0335L324.271 52.884L273.608 7.09093H237.381ZM46.0225 2.3893C36.8957 2.3893 26.4916 4.17777 17.752 8.08517C9.59055 11.7491 2.87695 17.6247 2.87695 27.4135C2.87695 36.1819 8.45765 41.3386 8.28424 41.1705C10.6888 43.3735 14.5007 47.1186 24.4859 49.2723C28.9221 50.2636 38.4448 51.7245 47.9646 52.7941C57.3717 53.771 66.669 54.7189 70.4579 55.658C73.4549 56.4523 78.4604 57.4929 78.4604 63.1395C78.4604 68.815 73.1572 70.5195 72.2324 70.876C71.2844 71.2673 64.9437 74.1834 53.4644 74.1834C45.0197 74.1834 34.8611 71.6354 31.1503 70.3513C26.9164 68.815 22.4455 66.7628 18.2607 61.6438C17.2058 60.3683 15.6394 56.8755 15.6394 53.4376H5.18609V82.5315H16.7145V78.6096C16.7145 78.2096 17.3243 76.3226 19.1999 77.2473C21.5929 78.3574 28.6678 81.1315 36.0952 82.6735C42.121 83.9316 46.0225 84.8331 53.5366 84.8331C65.8367 84.8331 72.4173 82.8446 76.9605 81.5431C81.3274 80.2822 86.6364 78.0531 90.8934 74.6472C93.2344 72.8065 98.3209 68.0005 98.3209 59.3393C98.3209 50.9825 93.9164 45.8026 92.3095 44.2634C90.1738 42.1039 87.5988 40.4487 84.8735 39.1675C82.4632 38.0718 78.7408 36.7037 75.7033 35.979C69.7267 34.4775 56.3111 32.6861 49.9356 32.0339C43.2192 31.3035 31.5029 30.3382 26.8788 28.8918C25.4598 28.4715 22.5438 27.0482 22.5438 23.7206C22.5438 21.3523 23.9136 19.3117 26.4915 17.6421C30.6041 15.0623 39.0199 13.4767 47.6698 13.4767C58.0018 13.4535 66.7008 15.7376 72.2324 18.245C74.1282 19.161 76.3045 20.3175 78.0934 21.7582C80.0644 23.3785 82.8215 26.7323 83.8244 31.4165H93.1506V6.08219H82.7811V9.01564C82.7811 9.9838 81.8042 11.1954 79.9083 10.2157C75.2843 7.73733 62.1548 2.46756 46.0225 2.3893ZM170.754 85.6128C153.706 85.6128 137.894 80.4648 127.282 70.9224C119.334 63.7395 115.442 53.9652 115.442 43.9474C115.442 34.0369 119.479 24.1293 127.282 16.9783C137.111 8.0243 154.472 2.3864 170.754 2.3864C188.898 2.3864 203.328 6.97498 214.345 17.0217C222.217 24.2075 226.026 33.9789 226.026 43.9474C226.026 53.571 222.003 63.8525 214.345 70.9224C204.1 80.5546 187.91 85.6128 170.754 85.6128V74.6472C179.881 74.6472 188.256 71.4673 194.109 65.6439C199.938 59.7799 202.655 52.684 202.655 43.9474C202.655 35.5036 199.736 27.7439 194.109 22.1872C188.337 16.4884 179.708 13.2187 170.754 13.2187C161.795 13.2187 153.212 16.4333 147.377 22.1872C141.833 27.7439 138.886 35.5761 138.886 43.9474C138.886 52.2579 141.871 60.0582 147.377 65.6439C153.212 71.4354 161.795 74.6472 170.754 74.6472" fill="white"/>
</g>
</svg>
