<svg width="319" height="88" viewBox="0 0 319 88" fill="none" xmlns="http://www.w3.org/2000/svg">
<g clip-path="url(#clip0_368_8110)">
<path d="M20.1762 0.219727C21.4462 0.539727 22.7462 0.769727 23.9762 1.18973C29.4162 3.04973 32.8462 6.67973 33.7362 12.4697C33.7862 12.8197 33.7862 13.1697 33.8062 13.5797C33.5262 13.6397 33.2962 13.7297 33.0762 13.7297C30.7962 13.7397 28.5162 13.7197 26.2362 13.7497C25.5962 13.7497 25.3262 13.5597 25.2162 12.9097C24.7962 10.3997 23.3662 8.75973 20.8962 7.99973C18.4462 7.24973 16.0062 7.23973 13.6062 8.12973C11.7562 8.80973 10.3462 9.97973 9.96621 12.0497C9.54621 14.3097 10.6062 16.2197 12.8562 16.6897C15.2662 17.1897 17.7462 17.4297 20.2062 17.6697C23.1362 17.9597 25.9562 18.4897 28.5562 19.9697C36.1362 24.2997 36.5862 36.5797 28.1662 40.9597C21.1162 44.6297 13.8262 44.6197 6.89621 40.5197C2.69621 38.0397 0.746211 34.0197 0.616211 29.0297H9.05621C9.11621 29.5397 9.12621 30.0097 9.22621 30.4697C9.78621 32.9497 11.1762 34.7297 13.6562 35.5097C16.5662 36.4197 19.4962 36.3697 22.3662 35.3697C24.2262 34.7297 25.5162 33.4397 25.8962 31.4797C26.3962 28.9297 25.3362 26.9797 22.7662 26.3597C20.0262 25.6997 17.1862 25.4697 14.3762 25.1297C11.2462 24.7497 8.22621 24.0897 5.70621 22.0397C-0.423789 17.0497 0.506211 7.21973 7.52621 2.87973C9.59621 1.59973 11.8562 0.869727 14.2462 0.469727C14.5462 0.409727 14.8362 0.299727 15.1362 0.219727C16.8162 0.219727 18.4962 0.219727 20.1762 0.219727Z" fill="white"/>
<path d="M318.556 42.5895C318.206 42.6595 317.866 42.7795 317.516 42.7795C308.086 42.7895 298.646 42.7795 289.216 42.7795C288.986 42.7795 288.756 42.7395 288.446 42.7095V1.03949C288.806 1.01949 289.186 0.979492 289.576 0.979492C298.806 0.979492 308.046 0.979492 317.276 0.979492C317.706 0.979492 318.126 1.09949 318.556 1.16949V8.34949C318.086 8.41949 317.626 8.53949 317.156 8.53949C310.796 8.54949 304.446 8.53949 298.086 8.53949C297.656 8.53949 297.236 8.53949 296.786 8.53949V17.4195H315.696V24.8495H296.786V35.1895C297.366 35.1895 297.846 35.1895 298.326 35.1895C304.606 35.1895 310.876 35.1895 317.156 35.1895C317.626 35.1895 318.086 35.3095 318.556 35.3795V42.5595V42.5895Z" fill="white"/>
<path d="M281.656 42.7795C278.676 42.7795 275.896 42.8095 273.106 42.7395C272.796 42.7395 272.376 42.2195 272.216 41.8595C270.196 37.3495 268.196 32.8395 266.256 28.3095C265.916 27.5095 265.476 27.2795 264.646 27.2895C262.256 27.3395 259.876 27.3095 257.376 27.3095V42.6795H249.116V1.03949C249.516 1.01949 249.896 0.979492 250.286 0.979492C255.796 0.979492 261.316 0.929492 266.826 0.989492C270.966 1.03949 274.806 1.98949 277.886 5.01949C283.346 10.3795 282.696 21.8895 274.646 25.6195C274.506 25.6895 274.376 25.7695 274.126 25.9195C275.376 28.7095 276.616 31.4995 277.856 34.2795C279.096 37.0695 280.346 39.8495 281.646 42.7795H281.656ZM257.336 19.6595C260.986 19.6595 264.506 19.7995 267.996 19.6195C271.186 19.4595 272.916 17.5795 273.166 14.5495C273.396 11.8095 271.636 9.36949 268.846 8.56949C268.616 8.49949 268.386 8.38949 268.156 8.38949C264.576 8.37949 260.986 8.38949 257.336 8.38949V19.6695V19.6595Z" fill="white"/>
<path d="M241.367 1.05957V8.54957H219.787V17.4096H238.807V24.8096H219.767V35.1796H241.337V42.7096H211.477V1.05957H241.367Z" fill="white"/>
<path d="M201.446 1.06955V42.6996H193.246V25.0196H177.106V42.7196H168.916V1.03955H177.026V16.9396H193.196V1.06955H201.436H201.446Z" fill="white"/>
<path d="M47.9962 8.62979H35.8662V1.02979H68.2862V8.59979H56.2762V42.7198H47.9962V8.62979Z" fill="white"/>
<path d="M119.676 34.8698V42.6998H92.4463V1.0498H100.596V34.8698H119.686H119.676Z" fill="white"/>
<path d="M124.057 1.02979H132.157V34.8598H151.247V42.6898H124.057V1.02979Z" fill="white"/>
<path d="M74.1064 1.0498H82.2664V42.6898H74.1064V1.0498Z" fill="white"/>
<path d="M150.716 74.5998H152.266C151.426 78.8898 150.606 83.0898 149.796 87.2398C148.526 87.6398 147.896 87.3298 147.586 86.0398C146.996 83.5598 146.246 81.1298 145.556 78.6698C145.466 78.3398 145.336 78.0298 145.106 77.3698C144.366 79.8798 143.716 82.0698 143.076 84.2598C142.906 84.8298 142.736 85.4098 142.576 85.9798C142.29 86.9598 141.563 87.3998 140.396 87.2998C139.546 83.1498 138.696 78.9598 137.816 74.6398H139.366C139.996 77.8498 140.626 81.0798 141.256 84.3098C141.326 84.3098 141.406 84.3098 141.476 84.3198C142.306 81.5198 143.116 78.7198 143.966 75.9198C144.126 75.3898 144.096 74.7498 145.006 74.7398C145.976 74.7298 145.946 75.3998 146.116 75.9798C146.936 78.7198 147.746 81.4698 148.816 84.2498C149.446 81.0598 150.066 77.8698 150.716 74.5898V74.5998Z" fill="white"/>
<path d="M187.536 82.0799V87.3099H185.986C185.986 83.1199 185.986 78.9099 185.986 74.6999C188.086 74.6999 190.206 74.5699 192.286 74.7399C193.886 74.8699 194.796 76.0599 195.056 77.7399C195.296 79.2799 194.686 80.5799 193.336 81.3699C193.136 81.4899 192.926 81.5999 192.606 81.7699C193.426 83.5599 194.246 85.3399 195.086 87.1599C193.916 87.4999 193.186 87.3299 192.786 86.1399C192.416 85.0499 191.816 84.0499 191.396 82.9699C191.126 82.2699 190.726 81.9799 189.966 82.0499C189.216 82.1199 188.466 82.0599 187.526 82.0599L187.536 82.0799ZM187.616 76.2999V80.6399C188.656 80.6399 189.646 80.6399 190.626 80.6399C190.946 80.6399 191.266 80.6699 191.586 80.6199C192.736 80.4399 193.486 79.4599 193.466 78.2099C193.446 77.0899 192.876 76.4299 191.566 76.3199C190.296 76.2099 189.016 76.2999 187.616 76.2999Z" fill="white"/>
<path d="M115.486 87.3399H114.036V74.6599C115.096 74.3499 115.846 74.5299 116.466 75.6199C117.946 78.2199 119.566 80.7299 121.126 83.2799C121.346 83.6399 121.586 83.9899 122.036 84.2799V74.6099H123.506V87.2399C122.256 87.6799 121.536 87.2199 120.906 86.1199C119.236 83.2299 117.436 80.4099 115.486 77.6099V87.3299V87.3399Z" fill="white"/>
<path d="M136.026 74.6396V76.0497H129.286V79.9397H135.176V81.4697H129.276V85.8297H135.956V87.3297H127.606V74.6396H136.016H136.026Z" fill="white"/>
<path d="M182.916 81.0097C182.796 81.9897 182.756 82.9997 182.536 83.9597C181.676 87.5897 177.186 89.0297 174.406 86.5097C173.736 85.9097 173.106 84.9597 172.996 84.1097C172.756 82.2397 172.606 80.2897 172.886 78.4397C173.296 75.6797 175.366 74.2797 178.116 74.4697C180.776 74.6397 182.516 76.4697 182.756 79.3397C182.806 79.8897 182.806 80.4497 182.836 81.0097H182.926H182.916ZM181.156 81.0397C181.096 80.3397 181.076 79.5397 180.936 78.7597C180.626 77.0297 179.476 76.0597 177.826 76.0597C175.946 76.0597 174.686 76.9597 174.486 78.7797C174.316 80.3097 174.326 81.8897 174.526 83.4197C174.756 85.2297 176.056 86.2097 177.726 86.1497C179.596 86.0897 180.736 85.0597 180.986 83.1597C181.076 82.4897 181.096 81.8097 181.156 81.0497V81.0397Z" fill="white"/>
<path d="M207.566 74.6795C206.146 76.3495 204.806 77.9195 203.466 79.4995C204.986 82.1095 206.456 84.6395 207.966 87.2395C206.686 87.6295 205.916 87.3395 205.326 86.1595C204.436 84.3895 203.366 82.7095 202.376 80.9995C200.216 82.5695 199.136 84.5795 199.806 87.3195H198.206V74.6395H199.686V80.8895C199.776 80.9295 199.866 80.9595 199.956 80.9995C200.806 80.0295 201.666 79.0695 202.516 78.0995C203.256 77.2595 204.066 76.4695 204.696 75.5595C205.406 74.5395 206.276 74.3695 207.576 74.6895L207.566 74.6795Z" fill="white"/>
<path d="M167.686 87.3995H166.066C166.046 87.1495 165.986 86.9495 166.016 86.7695C166.516 83.5095 165.436 80.6995 163.606 78.0595C162.906 77.0495 162.386 75.9295 161.756 74.8095C162.956 74.4395 163.696 74.6695 164.236 75.8495C164.976 77.4695 165.916 78.9995 166.826 80.6895C167.746 78.9895 168.696 77.4595 169.426 75.8295C169.926 74.7195 170.616 74.4595 171.816 74.7895C170.826 76.5795 169.916 78.3795 168.856 80.0995C167.966 81.5395 167.496 83.0195 167.666 84.7195C167.756 85.5795 167.686 86.4595 167.686 87.4195V87.3995Z" fill="white"/>
</g>
<defs>
<clipPath id="clip0_368_8110">
<rect width="317.94" height="87.56" fill="white" transform="translate(0.616211 0.219727)"/>
</clipPath>
</defs>
</svg>
